<svg width="42" height="46" viewBox="0 0 42 46" fill="none" xmlns="http://www.w3.org/2000/svg">
<path d="M21.0001 42.0006C32.2114 42.0006 41.3 32.9121 41.3 21.7008C41.3 10.4894 32.2114 1.40088 21.0001 1.40088C9.78876 1.40088 0.700195 10.4894 0.700195 21.7008C0.700195 32.9121 9.78876 42.0006 21.0001 42.0006Z" fill="#EBEBEB"/>
<path d="M38.7793 25.3222C38.6877 25.5246 38.5199 25.6827 38.3125 25.7622C38.105 25.8417 37.8746 25.8361 37.6712 25.7467C37.4678 25.6574 37.3079 25.4914 37.2261 25.2848C37.1444 25.0782 37.1474 24.8477 37.2345 24.6434C37.6641 23.6647 37.6226 22.5019 37.1624 21.5309C37.0306 21.2513 36.8636 20.9896 36.6654 20.7524C36.2666 20.2753 35.3976 19.5236 34.0684 19.845C31.9139 20.365 31.8916 22.225 32.9079 27.2013C33.2538 28.8956 33.026 30.2156 32.2314 31.126C31.5457 31.9107 30.6138 32.163 29.9971 32.242C29.6313 32.2881 29.3766 32.2727 29.3498 32.2712C29.1303 32.2521 28.9269 32.1479 28.7832 31.9809C28.6395 31.8139 28.5669 31.5972 28.5808 31.3773C28.5947 31.1574 28.6941 30.9517 28.8577 30.8041C29.0214 30.6566 29.2362 30.5788 29.4564 30.5876C29.4863 30.5892 30.4381 30.6229 30.9674 30.0078C31.1959 29.7408 31.311 29.3896 31.3539 29.013C31.4107 28.5206 31.3455 27.9844 31.2542 27.5388C30.8017 25.3237 30.442 23.3617 30.6146 21.7832C30.8263 19.8473 31.8556 18.6439 33.6726 18.2044C35.291 17.8132 36.8533 18.3478 37.9594 19.6694C38.0637 19.7944 38.1621 19.9238 38.2546 20.0575C39.3016 21.5807 39.5194 23.6371 38.7793 25.3222Z" fill="white"/>
<path d="M38.7789 25.3218C38.6873 25.5242 38.5196 25.6823 38.3122 25.7618C38.1047 25.8413 37.8743 25.8358 37.6709 25.7464C37.4675 25.657 37.3075 25.491 37.2258 25.2844C37.144 25.0779 37.1471 24.8474 37.2342 24.643C37.6637 23.6643 37.6223 22.5016 37.1621 21.5305C37.689 21.1608 38.1416 20.673 38.2543 20.0571C39.3013 21.5804 39.5191 23.6367 38.7789 25.3218Z" fill="#FFBC1F"/>
<g opacity="0.3">
<path d="M37.3304 25.4862C37.2411 25.3668 37.1852 25.2258 37.1684 25.0777C37.1515 24.9296 37.1744 24.7797 37.2345 24.6433C37.6641 23.6646 37.6226 22.5018 37.1624 21.5308C37.0306 21.2511 36.8636 20.9895 36.6654 20.7523C36.2666 20.2752 35.3976 19.5235 34.0684 19.8449C31.9139 20.3649 31.8916 22.2249 32.9079 27.2012C33.2538 28.8955 33.026 30.2155 32.2314 31.1259C31.5457 31.9106 30.6138 32.1629 29.9971 32.2419C29.6313 32.2879 29.3766 32.2726 29.3498 32.2711C29.1303 32.252 28.9269 32.1478 28.7832 31.9808C28.6395 31.8137 28.5669 31.5971 28.5808 31.3772C28.5947 31.1573 28.6941 30.9516 28.8577 30.804C29.0214 30.6564 29.2362 30.5787 29.4564 30.5875C29.4863 30.589 30.4382 30.6228 30.9674 30.0077C31.1959 29.7407 31.311 29.3895 31.3539 29.0129C31.4337 29.0238 31.5119 29.0436 31.5873 29.0718C31.9498 29.2098 32.3377 28.9398 32.3236 28.5524C32.3152 28.3141 32.2826 28.0182 32.2139 27.6507C31.8856 25.8919 29.8508 19.657 34.2848 19.137C38.1657 18.6821 39.5194 23.8793 37.3304 25.4862Z" fill="#363636"/>
</g>
<path d="M29.49 32.5818C29.398 32.5818 29.3414 32.5781 29.3285 32.5772C29.0264 32.5546 28.7455 32.4138 28.5465 32.1854C28.3476 31.957 28.2468 31.6593 28.266 31.3571C28.2851 31.0548 28.4227 30.7722 28.6489 30.5708C28.8751 30.3693 29.1716 30.2651 29.4741 30.2809C29.478 30.2809 30.3035 30.3088 30.7345 29.8074C31.0837 29.4013 31.1615 28.6174 30.9538 27.6004C30.4962 25.3592 30.1318 23.3722 30.3095 21.7496C30.537 19.6718 31.6441 18.3786 33.6001 17.9061C35.3359 17.4867 37.0104 18.0575 38.1947 19.4723C39.5636 21.1077 39.9114 23.508 39.0603 25.4451C39.0002 25.5845 38.9132 25.7106 38.8041 25.8161C38.6951 25.9217 38.5663 26.0047 38.425 26.0602C38.2838 26.1158 38.133 26.1428 37.9813 26.1399C37.8295 26.1369 37.6799 26.1039 37.541 26.0429C37.402 25.9818 37.2765 25.8939 37.1717 25.7841C37.0669 25.6743 36.9849 25.5449 36.9303 25.4033C36.8757 25.2617 36.8497 25.1107 36.8538 24.959C36.8578 24.8073 36.8918 24.6579 36.9538 24.5194C37.4614 23.3644 37.2511 21.9297 36.4304 20.9491C36.0776 20.527 35.3095 19.86 34.1405 20.1429C32.3532 20.5745 32.1616 22.0133 33.2083 27.14C33.5743 28.9325 33.3233 30.3413 32.4623 31.3279C31.7229 32.1736 30.7347 32.4569 30.0355 32.5463C29.8546 32.5695 29.6724 32.5813 29.49 32.5818ZM29.4092 30.8927C29.2701 30.8925 29.1363 30.9464 29.0362 31.0429C28.936 31.1394 28.8772 31.2711 28.8721 31.4101C28.8671 31.5491 28.9162 31.6846 29.0091 31.7882C29.102 31.8917 29.2315 31.9551 29.3702 31.9651C29.3733 31.9651 29.6121 31.9804 29.9582 31.9372C30.5517 31.8617 31.3879 31.6245 32.0001 30.9237C32.7286 30.0895 32.9328 28.8578 32.6071 27.2628C32.1236 24.8947 31.8346 23.0618 31.9949 21.8128C32.1582 20.5396 32.7755 19.8413 33.9964 19.5464C35.4878 19.1861 36.4562 20.024 36.9009 20.5553C37.8673 21.7105 38.1148 23.4028 37.5156 24.7662C37.4872 24.8307 37.4718 24.9002 37.4703 24.9707C37.4688 25.0412 37.4811 25.1113 37.5067 25.177C37.5323 25.2427 37.5705 25.3028 37.6193 25.3537C37.6681 25.4046 37.7264 25.4454 37.7909 25.4738C37.9213 25.5311 38.0691 25.5343 38.2018 25.4827C38.3345 25.4311 38.4412 25.3288 38.4986 25.1985C39.2582 23.4699 38.947 21.3273 37.7244 19.8664C36.6955 18.6372 35.2448 18.1404 33.7444 18.5029C32.0427 18.914 31.1188 19.9979 30.9197 21.8163C30.751 23.3503 31.1079 25.288 31.5549 27.4775C31.7293 28.3315 31.8094 29.4984 31.1998 30.208C30.5718 30.9384 29.4876 30.8967 29.4417 30.8942C29.4308 30.893 29.4199 30.8927 29.4092 30.8927Z" fill="#363636"/>
<path d="M31.4916 31.1371C31.3297 32.2685 30.4569 33.3614 30.4569 33.3614H11.8272C10.9191 32.7049 10.0907 31.6541 10.0171 30.6401V30.6394C9.9826 30.1684 10.1115 29.7051 10.4712 29.2933C11.6063 27.9947 13.2492 29.4083 13.2492 29.4083C11.1937 25.4805 14.9995 20.5986 14.9995 20.5986C15.0004 20.5976 15.0012 20.5966 15.0018 20.5955C17.3335 17.9194 25.2252 16.8656 26.1747 18.0475C26.2259 18.1093 26.2576 18.1848 26.266 18.2646C26.3534 19.1558 26.8451 20.3938 27.2347 21.2612C27.4909 21.8311 27.8253 22.3596 28.2149 22.8466C29.12 23.9787 29.6055 25.199 29.8617 26.2529C30.0328 26.9509 30.1255 27.6658 30.1378 28.3844C30.1447 28.7847 30.1202 29.0217 30.1202 29.0217C31.352 29.4781 31.6082 30.3172 31.4916 31.1371Z" fill="white"/>
<path d="M12.5413 32.4439C12.9589 32.4439 13.2974 32.1053 13.2974 31.6877C13.2974 31.2702 12.9589 30.9316 12.5413 30.9316C12.1237 30.9316 11.7852 31.2702 11.7852 31.6877C11.7852 32.1053 12.1237 32.4439 12.5413 32.4439Z" fill="#FF5253"/>
<path d="M29.2743 32.6717C29.6601 32.5119 29.8433 32.0696 29.6835 31.6838C29.5237 31.298 29.0814 31.1148 28.6956 31.2746C28.3098 31.4344 28.1266 31.8767 28.2864 32.2625C28.4462 32.6483 28.8885 32.8315 29.2743 32.6717Z" fill="#FF5253"/>
<path d="M11.175 31.5786C11.385 31.5786 11.5552 31.4084 11.5552 31.1985C11.5552 30.9885 11.385 30.8184 11.175 30.8184C10.9651 30.8184 10.7949 30.9885 10.7949 31.1985C10.7949 31.4084 10.9651 31.5786 11.175 31.5786Z" fill="#FF5253"/>
<path d="M11.6311 30.6953C11.841 30.6953 12.0112 30.5251 12.0112 30.3152C12.0112 30.1052 11.841 29.9351 11.6311 29.9351C11.4212 29.9351 11.251 30.1052 11.251 30.3152C11.251 30.5251 11.4212 30.6953 11.6311 30.6953Z" fill="#FF5253"/>
<path d="M12.6604 30.6665C12.8703 30.6665 13.0405 30.4963 13.0405 30.2864C13.0405 30.0764 12.8703 29.9062 12.6604 29.9062C12.4505 29.9062 12.2803 30.0764 12.2803 30.2864C12.2803 30.4963 12.4505 30.6665 12.6604 30.6665Z" fill="#FF5253"/>
<path d="M28.9391 30.7864C29.1575 30.6959 29.2612 30.4455 29.1708 30.227C29.0803 30.0086 28.8298 29.9049 28.6114 29.9953C28.3929 30.0858 28.2892 30.3363 28.3797 30.5547C28.4701 30.7732 28.7206 30.8769 28.9391 30.7864Z" fill="#FF5253"/>
<path d="M30.752 31.613C30.8064 31.3829 30.6638 31.1523 30.4337 31.098C30.2036 31.0437 29.973 31.1862 29.9187 31.4163C29.8643 31.6465 30.0069 31.877 30.237 31.9314C30.4671 31.9857 30.6977 31.8431 30.752 31.613Z" fill="#FF5253"/>
<path d="M30.3487 30.4875C30.403 30.2574 30.2605 30.0268 30.0304 29.9725C29.8002 29.9182 29.5697 30.0607 29.5153 30.2908C29.461 30.521 29.6035 30.7516 29.8337 30.8059C30.0638 30.8602 30.2944 30.7177 30.3487 30.4875Z" fill="#FF5253"/>
<path d="M29.8603 26.2537C29.4971 26.3449 29.1241 26.3907 28.7497 26.3902C26.2263 26.3902 24.1807 24.3446 24.1807 21.8212C24.18 21.0775 24.3613 20.345 24.7086 19.6874C25.0559 19.0298 25.5587 18.4671 26.1733 18.0483C26.2245 18.1101 26.2562 18.1856 26.2646 18.2654C26.352 19.1567 26.8437 20.3946 27.2333 21.2621C27.4895 21.832 27.8239 22.3604 28.2135 22.8475C29.1186 23.9795 29.6041 25.1998 29.8603 26.2537Z" fill="#FFBC1F"/>
<g opacity="0.3">
<path d="M30.1197 29.0227C28.5665 26.9273 26.2655 27.8646 26.2655 27.8646C26.523 27.3003 27.086 26.9874 27.5804 26.8159C28.1834 26.6065 28.5177 25.9494 28.2976 25.3502C27.9872 24.5052 27.3649 23.8284 26.8903 23.2294C26.5451 22.7939 26.2412 22.2477 26.0234 21.81C25.9232 21.6104 25.7505 21.4566 25.5406 21.3801C25.3308 21.3035 25.0996 21.31 24.8944 21.3981C18.0248 24.3364 14.999 20.5995 14.999 20.5995C14.9999 20.5986 15.0006 20.5975 15.0013 20.5965C17.333 17.9204 25.2247 16.8665 26.1742 18.0485C26.2253 18.1103 26.2571 18.1858 26.2655 18.2656C26.3529 19.1568 26.8446 20.3947 27.2342 21.2622C27.4904 21.8321 27.8248 22.3606 28.2144 22.8476C29.1195 23.9797 29.605 25.2 29.8612 26.2539C30.2439 27.8216 30.1197 29.0227 30.1197 29.0227Z" fill="#363636"/>
</g>
<g opacity="0.3">
<path d="M31.4911 31.1374C31.3292 32.2687 30.4564 33.3617 30.4564 33.3617H11.8267C10.9186 32.7051 10.0902 31.6543 10.0166 30.6404L11.1067 31.6654C11.6376 32.1648 12.3391 32.4428 13.068 32.4428H13.4537C13.9656 32.4428 14.4639 32.2779 14.8748 31.9727C14.8748 31.9727 15.1547 32.2848 15.5981 31.9727C15.5981 31.9727 16.0583 32.2112 16.6826 31.5247C16.6826 31.5247 17.5923 31.2455 17.2609 30.286C16.9296 29.3265 16.0912 26.3843 16.6458 25.1763C16.6458 25.1763 17.2003 29.9401 18.5318 29.9623C18.5318 29.9623 19.9124 30.329 22.1306 25.1786C22.1022 25.2698 21.1749 28.2067 19.9983 30.1319C19.9983 30.1319 19.7644 31.2532 20.7753 31.1182C20.7753 31.1182 20.9479 32.0271 22.3039 31.7326C22.3039 31.7326 23.9307 32.959 24.7691 28.11C24.7691 28.11 25.1135 26.9511 24.9171 25.4647C24.9171 25.4647 25.4612 28.0695 24.9074 30.7321C24.7519 31.4804 25.2756 32.2018 26.0352 32.2873C26.6501 32.3565 27.5195 32.4152 28.7478 32.4384C29.6069 32.4546 30.4463 32.1483 31.0752 31.5626C31.2209 31.4279 31.3597 31.286 31.4911 31.1374Z" fill="#363636"/>
</g>
<g opacity="0.3">
<path d="M30.1187 29.0229C30.1187 29.0229 27.514 28.3985 27.0047 31.8416C27.0047 31.8416 26.4962 28.2428 30.1364 28.3855C30.1433 28.7859 30.1187 29.0229 30.1187 29.0229Z" fill="#363636"/>
</g>
<g opacity="0.3">
<path d="M20.1424 29.8894C20.1424 29.8894 20.3745 30.4467 20.7997 30.3974C20.8848 30.3885 20.9687 30.3707 21.0501 30.3444C21.0768 30.3359 21.1051 30.3335 21.1328 30.3375C21.1606 30.3415 21.187 30.3517 21.2103 30.3675C21.2335 30.3832 21.2528 30.4039 21.2668 30.4282C21.2809 30.4525 21.2892 30.4796 21.2912 30.5076C21.3096 30.7256 21.3843 30.9785 21.6252 31.0261C21.9541 31.091 22.3178 30.8971 22.5488 30.7095C22.6533 30.6246 22.8113 30.6705 22.8475 30.8001L22.8493 30.8069C22.8542 30.8244 22.8641 30.8401 22.8776 30.8523C22.8912 30.8644 22.9079 30.8724 22.9259 30.8754C22.9438 30.8784 22.9623 30.8762 22.979 30.8691C22.9958 30.862 23.0102 30.8502 23.0205 30.8353C23.4074 30.275 24.4405 28.5445 24.9164 25.4653C24.9164 25.4653 25.3213 29.0024 23.3027 31.6877C23.3027 31.6877 22.8209 32.1342 22.3032 31.7337C22.3032 31.7337 21.236 32.0741 20.7746 31.1193C20.775 31.1197 19.6822 31.068 20.1424 29.8894Z" fill="#363636"/>
</g>
<g opacity="0.3">
<path d="M14.0576 31.1738C14.0576 31.1738 14.8645 31.6976 15.0701 31.2753C15.1139 31.1853 15.2334 31.161 15.3146 31.2196C15.4543 31.3204 15.6521 31.4014 15.8515 31.2787C16.0371 31.1641 16.0969 30.9768 16.1106 30.8185C16.1225 30.6781 16.2035 30.5476 16.3355 30.4982C16.4812 30.4437 16.6192 30.3075 16.5131 29.972C16.32 29.3618 15.8203 26.2368 16.6464 25.1768C16.6464 25.1768 16.1569 26.2443 16.7325 28.3773C16.7325 28.3773 17.9977 31.2746 16.6832 31.5252C16.6832 31.5252 16.3631 32.3511 15.4632 31.9566C15.4626 31.9566 14.6617 32.5237 14.0576 31.1738Z" fill="#363636"/>
</g>
<path d="M30.4558 33.6687H11.8265C11.762 33.6687 11.6992 33.6483 11.647 33.6106C10.8033 33.0008 9.85223 31.9324 9.71923 30.7625C9.64821 30.1408 9.82815 29.5633 10.2396 29.0923C10.9572 28.2704 11.8832 28.3474 12.6062 28.6565C12.1307 27.1378 12.2852 25.3471 13.0687 23.4158C13.771 21.6848 14.7165 20.4619 14.7561 20.4106L14.7666 20.3981C15.7322 19.287 17.7425 18.3157 20.284 17.7335C22.4899 17.2273 24.6894 17.1175 25.7567 17.4574C26.3857 17.6582 26.5464 17.9911 26.5698 18.235C26.6524 19.0811 27.1284 20.2795 27.513 21.1359C27.747 21.6566 28.0631 22.1677 28.4527 22.6546C30.4399 25.1397 30.4764 27.9917 30.4394 28.8205C31.1369 29.1284 31.5758 29.5926 31.7458 30.2029C32.16 31.6928 30.7553 33.4768 30.6953 33.552C30.6667 33.5882 30.6304 33.6175 30.5889 33.6377C30.5474 33.6579 30.502 33.6685 30.4558 33.6687ZM11.9268 33.0551H30.302C30.5822 32.6658 31.4345 31.3697 31.1547 30.3677C31.0217 29.8921 30.6485 29.5456 30.0125 29.3106C29.9485 29.2871 29.8942 29.2429 29.858 29.1851C29.8219 29.1273 29.8061 29.0591 29.8131 28.9912C29.8163 28.9592 30.1159 25.7189 27.9732 23.0393C27.5514 22.5116 27.2081 21.9562 26.9531 21.3883C26.5495 20.4901 26.0496 19.2253 25.9588 18.2959C25.9528 18.2345 25.8472 18.1316 25.5693 18.0429C23.6671 17.4359 17.2509 18.4866 15.2347 20.794C15.0869 20.988 11.6123 25.6221 13.5189 29.2672C13.5521 29.3304 13.5622 29.4033 13.5475 29.4732C13.5327 29.543 13.494 29.6056 13.4381 29.65C13.3822 29.6944 13.3125 29.7179 13.2411 29.7165C13.1697 29.715 13.101 29.6887 13.0469 29.6421C12.9896 29.593 11.6189 28.4445 10.6999 29.4961C10.4009 29.8385 10.2755 30.2413 10.3272 30.6926C10.417 31.4705 11.0409 32.389 11.9268 33.0551Z" fill="#363636"/>
<path d="M13.5378 29.3079C13.6408 29.594 13.7575 29.8871 13.8816 30.1692C14.003 30.4501 14.1391 30.7243 14.2893 30.9909C14.3271 31.0556 14.3642 31.1209 14.4048 31.1809L14.4645 31.273L14.5272 31.3579C14.5682 31.4179 14.6128 31.463 14.6555 31.5127C14.6649 31.5245 14.6757 31.5351 14.6877 31.5442L14.7193 31.5716L14.75 31.6C14.7612 31.6095 14.7767 31.6186 14.7899 31.6279C14.8972 31.7046 15.0114 31.7614 15.1028 31.7806C15.1388 31.7891 15.176 31.7904 15.2125 31.7842C15.2241 31.7821 15.2353 31.7782 15.2458 31.7729C15.2493 31.7711 15.2527 31.7691 15.2559 31.7668C15.2571 31.7658 15.2585 31.7652 15.2576 31.7655C15.2567 31.7658 15.2585 31.7655 15.2562 31.7672C15.2521 31.7713 15.2483 31.7756 15.2449 31.7803L15.6523 31.7172C15.6471 31.7137 15.6501 31.7157 15.6532 31.7172C15.6561 31.719 15.6591 31.7206 15.6623 31.722C15.6696 31.7259 15.6772 31.7294 15.685 31.7325C15.7003 31.7401 15.7182 31.7454 15.7353 31.7516C15.7689 31.7618 15.8036 31.7683 15.8387 31.771C15.9049 31.7755 15.9713 31.7639 16.0321 31.7371C16.101 31.7021 16.1633 31.6554 16.2162 31.5991C16.2455 31.567 16.2728 31.5294 16.3019 31.4951L16.3799 31.3734L16.7173 31.2276C16.7083 31.2253 16.7173 31.2276 16.7189 31.2276L16.7316 31.2286C16.7405 31.2286 16.7503 31.2295 16.7597 31.2294C16.778 31.2293 16.7962 31.2275 16.8141 31.224C16.8415 31.2192 16.8677 31.2087 16.8908 31.1933C16.9119 31.1789 16.9292 31.1597 16.9415 31.1374C16.9608 31.1033 16.9754 31.0668 16.9847 31.0287C17.0071 30.9367 17.0113 30.8192 17.0047 30.6968C16.9966 30.5683 16.979 30.4407 16.9519 30.3148C16.9401 30.2501 16.9223 30.1841 16.9085 30.1186L16.8563 29.9192C16.8192 29.7781 16.7796 29.6377 16.7446 29.496C16.6764 29.212 16.6126 28.9276 16.5584 28.6411C16.453 28.0677 16.3677 27.4897 16.3437 26.9043C16.3371 26.7582 16.3383 26.6108 16.3387 26.4646C16.3466 26.3174 16.3503 26.1709 16.3694 26.0239C16.376 25.9509 16.3878 25.8776 16.4001 25.8047C16.4059 25.7682 16.4123 25.7318 16.4191 25.6956L16.4461 25.5883C16.4556 25.5524 16.4627 25.5165 16.4744 25.4809L16.5126 25.376C16.5331 25.3057 16.5771 25.2417 16.6089 25.1782C16.5518 25.4635 16.5736 25.7458 16.5978 26.0268C16.6221 26.3079 16.6672 26.5875 16.7161 26.8662C16.8111 27.4235 16.9292 27.9782 17.0752 28.5256C17.1441 28.8001 17.2229 29.0723 17.3053 29.3429C17.3443 29.4788 17.3889 29.6129 17.4302 29.7479C17.4739 29.8881 17.5201 30.0352 17.5529 30.1855C17.5895 30.3398 17.6144 30.4967 17.6276 30.6548C17.6442 30.8303 17.6332 31.0073 17.5949 31.1794C17.5704 31.2811 17.5306 31.3785 17.4768 31.4682C17.4154 31.5683 17.3325 31.6534 17.234 31.7174C17.1355 31.7813 17.024 31.8224 16.9076 31.8378C16.8545 31.8455 16.8008 31.8484 16.7473 31.8465C16.7209 31.8465 16.6946 31.8438 16.6679 31.8407L16.6271 31.8352C16.6118 31.8324 16.6024 31.8312 16.5758 31.825L16.9132 31.6793L16.8014 31.8536C16.7565 31.9097 16.7137 31.9666 16.6633 32.0206C16.5596 32.128 16.4369 32.2277 16.2855 32.2967C16.1315 32.3656 15.9629 32.3954 15.7946 32.3836C15.7128 32.3774 15.6319 32.362 15.5535 32.3376C15.5147 32.3253 15.4766 32.311 15.4394 32.2948C15.4206 32.2872 15.4015 32.2773 15.3826 32.2679C15.3734 32.2635 15.3633 32.2579 15.3528 32.2526C15.3424 32.2472 15.3334 32.2418 15.3159 32.2305L15.7232 32.1674C15.7132 32.1796 15.7026 32.1911 15.6914 32.2021C15.6824 32.2115 15.6761 32.2174 15.6682 32.2239C15.654 32.2367 15.6391 32.2488 15.6236 32.2601C15.595 32.2814 15.5648 32.3003 15.5332 32.3167C15.4734 32.3481 15.4095 32.3712 15.3433 32.3851C15.2238 32.4093 15.1005 32.4085 14.9813 32.3827C14.7618 32.3348 14.5904 32.2368 14.4401 32.1323C14.4211 32.1187 14.4024 32.1073 14.3831 32.0917L14.3246 32.0415C14.2878 32.0077 14.243 31.9737 14.2143 31.9389C14.153 31.8695 14.0876 31.7994 14.0387 31.7284L13.9603 31.6219L13.8905 31.5146C13.8423 31.4431 13.8011 31.3707 13.759 31.2983C13.5975 31.0125 13.4512 30.7183 13.3209 30.417C13.1899 30.1185 13.0716 29.8224 12.96 29.5119L13.5378 29.3079Z" fill="#363636"/>
<path d="M15.359 32.0223C15.312 31.9391 15.2707 31.8529 15.2353 31.7641C15.2 31.6756 15.1683 31.5853 15.1411 31.4928C15.1124 31.3994 15.0912 31.3038 15.0779 31.207C15.0658 31.11 15.0626 31.0027 15.0948 30.9048C15.1494 30.9899 15.2092 31.0582 15.266 31.1306C15.3228 31.203 15.3772 31.2746 15.4331 31.3463L15.5977 31.5624C15.6506 31.6347 15.705 31.7089 15.7511 31.7815L15.359 32.0223Z" fill="#363636"/>
<path d="M16.437 31.622C16.3795 31.4303 16.327 31.2374 16.2807 31.0415C16.2566 30.944 16.2336 30.8461 16.214 30.7469C16.1931 30.6471 16.1777 30.5463 16.168 30.4448C16.2936 30.6062 16.4097 30.7685 16.522 30.9337C16.6366 31.0972 16.7474 31.2631 16.8549 31.4289L16.437 31.622Z" fill="#363636"/>
<path d="M30.066 29.325C30.0581 29.3236 30.0333 29.3199 30.0149 29.3181C29.9965 29.3163 29.9741 29.3138 29.9535 29.3123C29.9115 29.3094 29.8684 29.3067 29.8253 29.3052C29.7383 29.3024 29.6513 29.3043 29.5645 29.3109C29.3902 29.324 29.2176 29.3544 29.0492 29.4017C28.7092 29.4977 28.3951 29.669 28.1302 29.9029C27.996 30.0249 27.8732 30.159 27.7633 30.3034C27.7111 30.379 27.6545 30.4525 27.6085 30.5335C27.5844 30.5732 27.5577 30.6117 27.5349 30.6527L27.4675 30.7765C27.2868 31.1083 27.1454 31.4691 27.0056 31.8414C26.9972 31.4387 27.0595 31.0377 27.1897 30.6565C27.3229 30.2608 27.5344 29.8959 27.8116 29.5836C28.1032 29.2635 28.4681 29.0188 28.875 28.8705C29.0785 28.7959 29.29 28.7454 29.5053 28.7201C29.6131 28.7072 29.7215 28.6999 29.83 28.6985C29.8846 28.6977 29.9394 28.6985 29.9949 28.7022C30.0226 28.7037 30.0506 28.706 30.079 28.7088C30.1074 28.7116 30.1328 28.7142 30.1733 28.7206L30.066 29.325Z" fill="#363636"/>
<path d="M29.577 29.1454C29.565 29.1246 29.5416 29.0862 29.5215 29.056C29.5014 29.0258 29.4793 28.9913 29.4567 28.9592C29.412 28.8951 29.3647 28.8316 29.3156 28.7698C29.2172 28.6463 29.1104 28.5297 28.9959 28.4209C28.7697 28.203 28.5057 28.028 28.217 27.9043C27.9269 27.784 27.6089 27.7271 27.2788 27.7257C26.9487 27.7243 26.6089 27.7817 26.2646 27.8638C26.559 27.6533 26.893 27.5046 27.2464 27.4267C27.6167 27.3475 28.0006 27.3577 28.3662 27.4565C28.7364 27.5561 29.0821 27.7432 29.3771 27.9831C29.5244 28.1033 29.6607 28.2363 29.7846 28.3804C29.8459 28.4525 29.9056 28.5265 29.9604 28.6047C29.988 28.6437 30.0153 28.6829 30.0409 28.7242C30.0665 28.7655 30.0898 28.8031 30.1196 28.8584L29.577 29.1454Z" fill="#363636"/>
<path d="M22.1311 25.1772C22.0763 25.6095 21.9715 26.0252 21.8496 26.4351C21.7276 26.845 21.5759 27.2431 21.4296 27.6444C21.2832 28.0457 21.1242 28.4421 20.9576 28.8381C20.9171 28.9375 20.8738 29.0359 20.829 29.1339C20.7842 29.2319 20.7423 29.3305 20.6949 29.4281L20.5549 29.7208L20.4046 30.0123L20.4199 29.9816C20.4124 30.0009 20.3998 30.0366 20.3906 30.0658C20.3814 30.0949 20.3719 30.1272 20.3636 30.1592C20.3475 30.2206 20.335 30.2828 20.3262 30.3456C20.3078 30.4668 20.3094 30.5838 20.3334 30.6598C20.3602 30.7365 20.3817 30.7618 20.4444 30.7949C20.5113 30.8236 20.6215 30.8432 20.7448 30.8369L21.0637 31.0792C21.0622 31.0721 21.0637 31.0782 21.0649 31.0819C21.0662 31.0865 21.0677 31.0909 21.0695 31.0953C21.073 31.1057 21.0772 31.116 21.082 31.1259C21.0914 31.1476 21.1021 31.1687 21.114 31.1891C21.1264 31.2095 21.1402 31.2289 21.1551 31.2474L21.1772 31.2754L21.2025 31.2997C21.2733 31.3667 21.3598 31.4149 21.454 31.44C21.5518 31.4728 21.6718 31.4719 21.7905 31.4706C21.8519 31.4627 21.9143 31.4567 21.9768 31.4475L22.1673 31.4053L22.4127 31.4432C22.4092 31.441 22.4162 31.4449 22.4208 31.4472C22.4254 31.4495 22.4314 31.4525 22.4376 31.4553C22.4491 31.4611 22.4616 31.4665 22.475 31.4717C22.5011 31.4824 22.5278 31.4915 22.5551 31.499C22.6079 31.5136 22.6623 31.5224 22.7171 31.5252C22.82 31.5314 22.9226 31.5077 23.0125 31.4571C23.1045 31.4054 23.192 31.3243 23.2719 31.2258C23.2915 31.2008 23.3086 31.1715 23.3277 31.145C23.3465 31.116 23.3656 31.0943 23.3845 31.0598C23.4218 30.994 23.4612 30.9301 23.4973 30.8627C23.6444 30.5946 23.7767 30.3123 23.9021 30.0279L23.9941 29.8131L24.0797 29.5955C24.1402 29.4516 24.1897 29.304 24.2445 29.1572C24.45 28.5678 24.6165 27.9631 24.72 27.3471C24.7318 27.2704 24.747 27.1937 24.7584 27.1159L24.789 26.884C24.8151 26.7292 24.8252 26.5738 24.8458 26.4175L24.8601 26.3001L24.8673 26.1825L24.8877 25.9456C24.9012 25.787 24.9004 25.6281 24.9183 25.4641C24.972 25.6181 25.0168 25.775 25.0524 25.9341C25.0785 26.094 25.1145 26.2563 25.1227 26.4187C25.1354 26.5815 25.1486 26.7456 25.1422 26.9087L25.1365 27.1541C25.1328 27.2357 25.1238 27.3167 25.1165 27.398C25.0552 28.0483 24.9315 28.6912 24.7472 29.3178C24.6551 29.6306 24.5548 29.9417 24.4336 30.2456C24.3124 30.5495 24.1882 30.8523 24.0334 31.1473C23.9958 31.2214 23.9538 31.2947 23.914 31.3686C23.8955 31.4045 23.8656 31.4464 23.8415 31.4849C23.8174 31.5234 23.7918 31.5636 23.7625 31.6015C23.6441 31.7524 23.4991 31.8971 23.3124 32.0028C23.122 32.1095 22.905 32.1594 22.6871 32.1467C22.5825 32.1412 22.4788 32.1228 22.3787 32.0919C22.3294 32.0768 22.281 32.0589 22.2337 32.0384C22.2101 32.0284 22.1863 32.0173 22.1625 32.0049C22.1506 31.9989 22.1389 31.9931 22.126 31.9856C22.1131 31.9781 22.1025 31.9727 22.0821 31.9598L22.3276 31.9977L22.0847 32.0513C22.0013 32.0643 21.916 32.0732 21.8307 32.0819C21.6552 32.0858 21.4744 32.0859 21.2881 32.0289C21.0957 31.9759 20.9196 31.8758 20.7758 31.7374L20.7224 31.6837L20.6747 31.6253C20.6434 31.5862 20.6147 31.5453 20.5888 31.5025C20.5632 31.4592 20.5403 31.4143 20.5202 31.3682C20.5096 31.3446 20.5001 31.3205 20.4918 31.2959C20.4874 31.2838 20.4829 31.2712 20.479 31.2568C20.475 31.2424 20.471 31.2312 20.4653 31.206L20.7842 31.4482C20.6063 31.4599 20.4061 31.4565 20.1924 31.3674C20.0796 31.3185 19.9792 31.2452 19.8983 31.1526C19.8202 31.0611 19.7626 30.9538 19.7296 30.838C19.6682 30.6219 19.6793 30.4281 19.7058 30.251C19.7201 30.1641 19.7393 30.0781 19.7635 29.9934C19.7756 29.9518 19.7882 29.9106 19.8025 29.8694C19.8167 29.8283 19.8299 29.7911 19.8512 29.7403V29.7392C19.8555 29.7294 19.8602 29.7197 19.8654 29.7104C20.068 29.3528 20.2574 28.9783 20.442 28.601C20.6293 28.2247 20.8036 27.84 20.9832 27.4572C21.1628 27.0745 21.3276 26.6842 21.5127 26.3021C21.6979 25.92 21.8945 25.5426 22.1311 25.1772Z" fill="#363636"/>
<path d="M20.5596 31.0373C20.6192 30.9538 20.6792 30.8712 20.7417 30.7896C20.8041 30.7079 20.8674 30.6271 20.9306 30.5461C20.9938 30.4651 21.0603 30.3858 21.1262 30.3062C21.1922 30.2266 21.2614 30.1488 21.3347 30.0747L21.2485 30.3723L21.1591 30.6668C21.1284 30.7642 21.0986 30.8627 21.0661 30.9594C21.0336 31.056 21.0017 31.1531 20.9682 31.249L20.5596 31.0373Z" fill="#363636"/>
<path d="M22.0479 31.5869L22.4742 31.0193C22.5439 30.9236 22.6176 30.8296 22.6865 30.7329C22.759 30.638 22.8263 30.5392 22.888 30.437C22.8799 30.5597 22.8477 30.6785 22.817 30.796C22.7826 30.9122 22.7477 31.0287 22.7073 31.1425C22.667 31.2563 22.6274 31.3706 22.5832 31.4826C22.539 31.5946 22.4946 31.7058 22.4464 31.8176L22.0479 31.5869Z" fill="#363636"/>
<path d="M20.2052 22.3153C17.3343 22.3153 14.7691 21.7674 12.7875 20.7304C12.2876 20.4704 11.8117 20.1665 11.3656 19.8222H11.3405V19.8021C11.1357 19.6423 10.939 19.4722 10.7513 19.2926C10.1927 18.759 9.73884 18.16 9.40136 17.5131C8.91263 16.572 8.66504 15.5209 8.66504 14.389C8.66504 13.363 8.8732 12.3359 9.28355 11.3363C9.37942 10.5047 9.46103 9.83299 9.54034 9.22415C9.82704 7.03912 10.2334 4.48148 11.0743 2.07939C11.1706 1.80081 11.3306 1.54853 11.5414 1.3426C11.7523 1.13667 12.0083 0.982778 12.2891 0.893148C12.5662 0.802512 12.8606 0.777782 13.1489 0.820923C13.4372 0.864064 13.7114 0.973887 13.9498 1.14166C15.3375 2.11222 16.7768 3.54083 17.6161 4.78138L17.6336 4.8073C18.5349 4.61261 19.4544 4.5149 20.3765 4.51584C21.2147 4.51556 22.051 4.59777 22.8731 4.76128C23.715 3.52595 25.1459 2.10746 26.5257 1.14273C26.7642 0.97489 27.0387 0.865053 27.3271 0.821964C27.6156 0.778875 27.9102 0.803723 28.1873 0.894529C28.468 0.984101 28.7239 1.13795 28.9346 1.34384C29.1453 1.54972 29.3051 1.80196 29.4012 2.08046C29.708 2.95883 29.97 3.88567 30.2004 4.91376C30.6769 7.03068 30.9554 9.28244 31.2 11.4081L31.2049 11.4501C31.3001 11.7065 31.382 11.9616 31.4489 12.209C31.6443 12.9196 31.7437 13.6531 31.7444 14.39C31.7444 16.3623 31.0157 18.0379 29.5785 19.3703C29.4251 19.5133 29.2594 19.655 29.0711 19.8035V19.8233H29.0455C28.3673 20.3516 27.5648 20.8075 26.6602 21.1785C25.1798 21.7844 23.4666 22.153 21.5683 22.274C21.1302 22.301 20.6718 22.3153 20.2052 22.3153ZM11.4166 19.7646C11.8581 20.105 12.329 20.4054 12.8237 20.6624C14.7944 21.6936 17.3472 22.2386 20.2058 22.2386C20.6707 22.2386 21.1276 22.2243 21.5635 22.1963C23.4543 22.0757 25.1594 21.7091 26.632 21.1071C27.5285 20.739 28.3234 20.2881 28.9953 19.7653L29.0106 19.7538C29.2033 19.6026 29.3723 19.4585 29.5277 19.3134C30.9488 17.9959 31.6692 16.3391 31.6692 14.3893C31.6685 13.6592 31.5701 12.9325 31.3765 12.2285C31.3046 11.9623 31.215 11.6876 31.1102 11.4116L31.0608 11.2815L31.1147 11.3243C30.8729 9.22768 30.5959 7.01197 30.1269 4.92972C29.8968 3.90454 29.636 2.98062 29.3305 2.10516C29.2381 1.83775 29.0847 1.59558 28.8823 1.39792C28.6799 1.20027 28.4342 1.05259 28.1646 0.966627C27.8987 0.879538 27.6161 0.855726 27.3394 0.897084C27.0626 0.938443 26.7993 1.04383 26.5705 1.20486C25.1899 2.17128 23.7582 3.59145 22.9231 4.8251L22.9088 4.84627L22.8838 4.8412C22.0587 4.67545 21.2191 4.59215 20.3774 4.59254C19.4087 4.59189 18.4429 4.70063 17.4986 4.91668L17.3337 4.95272L17.5331 4.79442C16.6952 3.56722 15.2752 2.16192 13.9056 1.20394C13.6769 1.04301 13.4138 0.93766 13.1372 0.896276C12.8607 0.854893 12.5782 0.878614 12.3124 0.965554C12.0429 1.05161 11.7972 1.19935 11.5948 1.39702C11.3925 1.59469 11.239 1.83685 11.1466 2.10424C10.3086 4.49958 9.90298 7.05231 9.61688 9.2335C9.53758 9.84358 9.45582 10.5159 9.35963 11.3504L9.35703 11.3605C8.94914 12.3524 8.7422 13.3713 8.7422 14.389C8.7422 15.5088 8.98764 16.5478 9.47024 17.4777C9.80327 18.118 10.2526 18.7102 10.8048 19.2379C10.9953 19.4199 11.195 19.592 11.4031 19.7535L11.4166 19.7646Z" fill="#363636"/>
<path d="M27.179 20.823C27.179 20.823 26.9764 20.9434 26.6456 21.1416C25.163 21.7485 23.4325 22.1154 21.5656 22.2343C21.1195 22.2631 20.6661 22.2773 20.2055 22.2768C17.3873 22.2768 14.8058 21.7428 12.8056 20.6968C12.3301 19.2453 13.6033 18.2117 15.6683 17.5521C16.4482 17.3026 17.0588 16.68 17.2548 15.8849C18.0649 12.6022 21.9656 12.6022 22.7758 15.8849C22.9719 16.68 23.5822 17.3026 24.3621 17.5521C26.4863 18.2306 27.7736 19.3044 27.179 20.823Z" fill="white"/>
<g opacity="0.6">
<path d="M26.4697 1.17261C26.347 1.25882 26.2243 1.3481 26.1016 1.43968C27.0773 0.971194 28.2823 1.44673 28.6552 2.51256C29.6538 5.36718 30.0734 8.53458 30.4518 11.8315L30.4343 11.8181C30.7994 12.7732 30.9961 13.7806 30.9961 14.8094C30.9961 16.8478 30.1984 18.5045 28.8424 19.7616C28.6773 19.9156 28.504 20.0631 28.3225 20.204H28.3217C28.2482 20.2617 28.1732 20.3186 28.0965 20.3738C28.3935 20.1937 28.6797 19.9964 28.9537 19.7829C28.9539 19.783 28.954 19.7831 28.9542 19.7831C28.9544 19.7831 28.9545 19.783 28.9546 19.7829C29.1355 19.6415 29.3093 19.4945 29.4745 19.3404C30.8303 18.0834 31.6283 16.4267 31.6283 14.3883C31.6283 13.3596 31.4314 12.3522 31.0665 11.397L31.0838 11.4105C30.7054 8.1135 30.2862 4.94625 29.2872 2.09163C28.8793 0.927782 27.4794 0.467121 26.4697 1.17261Z" fill="white"/>
</g>
<g opacity="0.6">
<path d="M11.4629 1.39625C11.7483 1.27931 12.0586 1.23611 12.3651 1.27061C12.6717 1.30511 12.9646 1.41621 13.2169 1.59368C14.4999 2.49061 15.7463 3.71198 16.5745 4.80618C16.6679 4.92793 16.7929 5.02175 16.9359 5.07746C17.079 5.13317 17.2345 5.14864 17.3857 5.12218H17.3907H17.3916C17.439 5.03444 17.4912 4.9404 17.5417 4.84959C17.4983 4.8591 17.4539 4.86861 17.4105 4.87889L17.5061 4.80219C16.7003 3.61242 15.2971 2.1855 13.8489 1.1726C13.0754 0.632167 12.0725 0.776057 11.4629 1.39625Z" fill="white"/>
</g>
<path d="M25.7812 5.8112C26.2678 4.9201 26.8975 4.07517 27.351 3.5122C27.592 3.21184 28.0732 3.32167 28.1609 3.69704C28.3821 4.64275 28.6934 6.23873 28.7385 7.89621V7.89698" fill="#FF5253"/>
<path d="M28.7379 7.89699H28.6996C28.6558 6.2823 28.3621 4.72652 28.1231 3.70579C28.1053 3.62816 28.0659 3.55714 28.0095 3.50099C27.953 3.44484 27.8818 3.40586 27.804 3.38856C27.7267 3.37002 27.6457 3.37406 27.5706 3.40022C27.4955 3.42638 27.4295 3.47356 27.3805 3.53613C26.9356 4.08837 26.303 4.93484 25.8144 5.82962L25.7471 5.7928C26.238 4.89311 26.8741 4.04297 27.3208 3.48812C27.3795 3.41503 27.4576 3.35993 27.5462 3.32909C27.6348 3.29826 27.7302 3.29293 27.8216 3.31372C27.9131 3.33451 27.9968 3.38058 28.0633 3.44668C28.1298 3.51278 28.1764 3.59624 28.1978 3.68754C28.4374 4.71179 28.7322 6.2731 28.7763 7.89438L28.7379 7.89699Z" fill="#363636"/>
<g opacity="0.6">
<path d="M25.3591 6.27779L27.4405 7.66836C27.6216 7.78947 27.8274 7.86881 28.043 7.90065C28.2585 7.93248 28.4784 7.91602 28.6868 7.85244L25.7804 5.81222C26.267 4.9202 26.8967 4.07528 27.3501 3.5123C27.3516 3.51004 27.3535 3.50811 27.3558 3.50662C27.1803 3.29416 26.8327 3.27131 26.6391 3.5123C26.2631 3.9794 25.6672 4.76159 25.1972 5.52337C25.1211 5.64558 25.0954 5.79257 25.1257 5.93333C25.1559 6.07408 25.2396 6.19759 25.3591 6.27779Z" fill="white"/>
</g>
<g opacity="0.3">
<path d="M27.1758 3.73263C27.1921 3.76527 27.2046 3.79972 27.2129 3.83526C27.397 4.61974 27.6424 5.85308 27.7463 7.19702L28.7386 7.89698V7.89621C28.6935 6.23949 28.3823 4.64275 28.1611 3.69704C28.0733 3.32167 27.5921 3.21184 27.3511 3.5122C27.2951 3.58174 27.2366 3.65522 27.1758 3.73263Z" fill="#363636"/>
</g>
<path d="M11.5801 7.89698V7.89621C11.625 6.23949 11.9364 4.64275 12.1576 3.69704C12.2452 3.32167 12.7264 3.21184 12.9674 3.5122C13.4209 4.07548 14.0506 4.9201 14.5373 5.8112" fill="#FF5253"/>
<path d="M11.6177 7.89717L11.541 7.89609C11.585 6.27404 11.88 4.71258 12.1195 3.68818C12.1408 3.59684 12.1874 3.51334 12.2539 3.44722C12.3205 3.38109 12.4042 3.335 12.4957 3.31421C12.5872 3.29341 12.6826 3.29875 12.7712 3.32962C12.8598 3.36048 12.9379 3.41563 12.9966 3.48876C13.4433 4.04376 14.079 4.89405 14.5702 5.79344L14.503 5.83025C14.0144 4.93578 13.3817 4.08947 12.9368 3.53677C12.8878 3.4741 12.8218 3.42686 12.7467 3.40069C12.6716 3.37453 12.5906 3.37054 12.5133 3.3892C12.4355 3.40649 12.3643 3.44548 12.3078 3.50163C12.2513 3.55778 12.2119 3.62879 12.1942 3.70643C11.9555 4.72654 11.6616 6.28263 11.6177 7.89717Z" fill="#363636"/>
<g opacity="0.6">
<path d="M11.579 7.9963L11.5854 7.69794C11.6486 6.11239 11.9441 4.60493 12.1566 3.69711C12.1712 3.63168 12.1998 3.5702 12.2405 3.51687C12.0012 3.44507 11.7206 3.577 11.6559 3.85435C11.4575 4.70219 11.1869 6.07251 11.1005 7.54131C11.0964 7.60418 11.1061 7.6672 11.129 7.72589C11.1519 7.78459 11.1875 7.83752 11.2331 7.88094C11.2788 7.92436 11.3335 7.9572 11.3932 7.97714C11.453 7.99707 11.5164 8.00361 11.579 7.9963Z" fill="white"/>
</g>
<g opacity="0.3">
<path d="M12.0732 4.0675C12.1017 4.08998 12.1275 4.11572 12.1499 4.1442C12.5963 4.69875 13.2142 5.5268 13.697 6.40302L14.5359 5.8112C14.0493 4.9201 13.4196 4.07548 12.966 3.5122C12.725 3.21184 12.244 3.32167 12.1562 3.69704C12.1302 3.81163 12.1028 3.93481 12.0732 4.0675Z" fill="#363636"/>
</g>
<path d="M18.7139 15.2323C18.7139 15.5499 19.1529 15.8064 19.6929 15.8051C20.2328 15.8037 20.67 15.5452 20.6693 15.2275C20.6685 14.9098 20.2307 14.8836 19.6907 14.8848C19.1508 14.886 18.7122 14.9147 18.7139 15.2323Z" fill="#363636"/>
<path d="M17.5951 15.557C17.6683 15.7849 17.7671 15.9968 17.9193 16.131C18.0658 16.2691 18.2522 16.3244 18.4422 16.3142C18.6323 16.3039 18.8257 16.2287 18.9853 16.1138C19.0654 16.0566 19.1376 15.9891 19.2 15.9129L19.2445 15.855L19.2931 15.7832C19.3362 15.7216 19.3935 15.6711 19.4602 15.6363C19.5268 15.6014 19.6009 15.5831 19.6762 15.5829C19.7514 15.5827 19.8256 15.6007 19.8924 15.6352C19.9592 15.6698 20.0168 15.7199 20.0601 15.7814L20.1091 15.8529L20.1537 15.9107C20.2165 15.9864 20.2891 16.0534 20.3694 16.1101C20.5303 16.2241 20.7231 16.3004 20.9138 16.308C21.1045 16.3157 21.2902 16.262 21.4354 16.1221C21.5869 15.987 21.6845 15.7747 21.7563 15.5462L21.757 15.5439C21.7626 15.526 21.7744 15.5105 21.7903 15.5004C21.8062 15.4902 21.8251 15.486 21.8438 15.4885C21.8625 15.4909 21.8797 15.4999 21.8924 15.5138C21.9051 15.5277 21.9124 15.5457 21.9132 15.5645C21.9241 15.8225 21.8741 16.104 21.7034 16.3487C21.6142 16.472 21.499 16.5742 21.3659 16.6481C21.2302 16.7211 21.0806 16.7645 20.927 16.7754C20.6222 16.8001 20.3254 16.7092 20.075 16.5536C19.9494 16.4743 19.8357 16.3775 19.7375 16.266C19.7134 16.2375 19.6899 16.2084 19.667 16.1787L19.6346 16.1327L19.6193 16.1095C19.6142 16.102 19.6062 16.0907 19.6108 16.0982C19.618 16.1095 19.6279 16.1187 19.6396 16.1252C19.6513 16.1316 19.6645 16.135 19.6779 16.135C19.6912 16.135 19.7044 16.1316 19.7161 16.1252C19.7278 16.1187 19.7377 16.1095 19.7449 16.0982C19.7493 16.0907 19.7415 16.1022 19.7365 16.1097L19.7211 16.1328L19.6889 16.1789L19.6191 16.2666C19.521 16.3787 19.4073 16.4762 19.2816 16.5561C19.032 16.7127 18.7357 16.8057 18.4306 16.782C18.2768 16.7719 18.1269 16.7293 17.9908 16.657C17.8574 16.5837 17.7417 16.4819 17.6519 16.359C17.4803 16.1149 17.4287 15.8337 17.4387 15.5755C17.4393 15.5567 17.4466 15.5388 17.4592 15.5248C17.4719 15.5108 17.489 15.5018 17.5077 15.4992C17.5263 15.4966 17.5453 15.5007 17.5612 15.5108C17.5771 15.5208 17.589 15.5361 17.5947 15.5541L17.5951 15.557Z" fill="#363636"/>
<path d="M24.7803 15.9884C25.8031 15.9859 26.6296 14.9322 26.6264 13.6349C26.6232 12.3376 25.7916 11.2879 24.7688 11.2904C23.7461 11.2929 22.9196 12.3466 22.9227 13.6439C22.9259 14.9412 23.7576 15.9909 24.7803 15.9884Z" fill="white"/>
<path d="M24.7764 16.2285C23.625 16.2285 22.686 15.0705 22.6826 13.6446C22.6793 12.2188 23.6147 11.0535 24.7679 11.0508H24.7721C25.9237 11.0508 26.8625 12.2086 26.8658 13.6345C26.8675 14.3156 26.6581 14.9588 26.2765 15.4446C25.8815 15.9482 25.3503 16.227 24.7805 16.227L24.7764 16.2285ZM24.7722 11.5305H24.7692C23.8804 11.5326 23.1595 12.4806 23.1623 13.6435C23.1651 14.8065 23.889 15.7488 24.7764 15.7488H24.7793C25.199 15.7477 25.5966 15.534 25.8991 15.1495C26.2147 14.7471 26.3877 14.2096 26.3863 13.6357C26.3834 12.474 25.6597 11.5303 24.7722 11.5303V11.5305Z" fill="#363636"/>
<path d="M24.4764 15.7843C25.2959 15.7823 25.958 14.9221 25.9554 13.863C25.9529 12.8039 25.2865 11.947 24.4671 11.949C23.6477 11.951 22.9855 12.8112 22.9881 13.8703C22.9907 14.9294 23.657 15.7863 24.4764 15.7843Z" fill="#363636"/>
<path d="M24.8179 13.7233C25.0098 13.7229 25.1649 13.4947 25.1642 13.2137C25.1635 12.9327 25.0074 12.7052 24.8154 12.7057C24.6234 12.7062 24.4683 12.9344 24.469 13.2154C24.4697 13.4964 24.6259 13.7238 24.8179 13.7233Z" fill="white"/>
<path d="M16.5629 13.6444C16.5661 12.3471 15.7396 11.2934 14.7168 11.2909C13.6941 11.2884 12.8624 12.338 12.8593 13.6354C12.8561 14.9327 13.6826 15.9864 14.7054 15.9889C15.7281 15.9914 16.5598 14.9417 16.5629 13.6444Z" fill="white"/>
<path d="M14.7096 16.2289H14.7054C14.1359 16.2275 13.6045 15.9494 13.2096 15.4465C12.8278 14.9596 12.6184 14.3166 12.6201 13.6355C12.6237 12.2098 13.5626 11.0518 14.7139 11.0518H14.7182C15.8714 11.0545 16.8069 12.2176 16.8035 13.6456C16.8001 15.0736 15.8616 16.2289 14.7096 16.2289ZM13.0998 13.6364C13.0984 14.2101 13.2715 14.7476 13.587 15.1501C13.8894 15.5355 14.287 15.7484 14.7068 15.7495H14.7097C15.5973 15.7495 16.3204 14.8059 16.324 13.6442C16.3275 12.4825 15.6059 11.5333 14.7171 11.5311H14.714C13.8266 11.5311 13.1033 12.4747 13.1 13.6364H13.0998Z" fill="#363636"/>
<path d="M16.4984 13.8709C16.501 12.8118 15.8388 11.9516 15.0194 11.9496C14.2 11.9476 13.5336 12.8045 13.5311 13.8636C13.5285 14.9227 14.1906 15.7829 15.01 15.7849C15.8295 15.7869 16.4958 14.9299 16.4984 13.8709Z" fill="#363636"/>
<path d="M15.0168 13.2155C15.0174 12.9345 14.8624 12.7063 14.6704 12.7059C14.4784 12.7054 14.3222 12.9328 14.3216 13.2138C14.3209 13.4948 14.4759 13.723 14.6679 13.7235C14.8599 13.724 15.0161 13.4965 15.0168 13.2155Z" fill="white"/>
<path d="M20.9273 16.549C20.9273 16.8816 20.8293 17.1472 20.6712 17.3477C20.1972 17.9506 19.1851 17.9506 18.7111 17.3477C18.5531 17.1483 18.4551 16.8816 18.4551 16.549C18.9346 16.4527 19.3549 16.2764 19.6915 15.9888C20.04 16.3012 20.4373 16.5182 20.9273 16.549Z" fill="#363636"/>
<path d="M20.6711 17.3478C20.1971 17.9507 19.1849 17.9507 18.7109 17.3478C19.1842 16.7434 20.1978 16.7434 20.6711 17.3478Z" fill="#F42C4F"/>
<path d="M19.6912 18.0763C19.299 18.0763 18.9316 17.94 18.6566 17.6928C18.4386 17.4966 18.1787 17.1391 18.1787 16.5493H18.7317C18.7317 17.222 19.2137 17.5231 19.6912 17.5231C20.1688 17.5231 20.6508 17.222 20.6508 16.5493H21.203C21.2038 17.5518 20.4429 18.0763 19.6912 18.0763Z" fill="#363636"/>
<path d="M28.7383 8.17369C28.6704 8.17362 28.6048 8.14849 28.5543 8.10312C27.6259 7.27231 26.6493 6.58354 25.6521 6.05569C25.6197 6.03859 25.591 6.01522 25.5678 5.98694C25.5445 5.95866 25.5271 5.92603 25.5166 5.89095C25.506 5.85587 25.5026 5.81905 25.5064 5.78263C25.5102 5.7462 25.5213 5.71091 25.5389 5.67879C26.0382 4.7633 26.6829 3.90104 27.1361 3.33898C27.2229 3.23112 27.3382 3.14982 27.469 3.10438C27.5998 3.05894 27.7407 3.05118 27.8757 3.08199C28.0107 3.1128 28.1343 3.18093 28.2324 3.27861C28.3305 3.37629 28.3992 3.49959 28.4306 3.63443C28.6727 4.66927 28.9707 6.2476 29.0152 7.88898C29.0152 7.89158 29.0152 7.89481 29.0152 7.89726C29.0152 7.97049 28.9861 8.04072 28.9344 8.09251C28.8826 8.14429 28.8123 8.17338 28.7391 8.17338L28.7383 8.17369ZM26.1597 5.70241C26.9356 6.13439 27.6971 6.65932 28.4322 7.26863C28.3423 5.90981 28.0964 4.63613 27.8914 3.76006C27.8836 3.72621 27.8664 3.69524 27.8418 3.67069C27.8172 3.64614 27.7862 3.62899 27.7523 3.6212C27.7184 3.61341 27.6831 3.6153 27.6502 3.62664C27.6174 3.63799 27.5884 3.65833 27.5665 3.68536C27.1681 4.18023 26.6173 4.91332 26.1597 5.70241Z" fill="#363636"/>
<path d="M20.1264 22.5931C16.8042 22.5931 13.9332 21.8833 11.8238 20.5403C9.52414 19.0761 8.30859 16.9487 8.30859 14.3889C8.30859 13.3385 8.5186 12.2886 8.93293 11.2674C9.30845 8.00582 9.73368 4.84348 10.7328 1.98794C10.8427 1.67057 11.0246 1.38298 11.2643 1.1477C11.504 0.912424 11.7949 0.735855 12.1143 0.631836C12.4337 0.527817 12.7728 0.499174 13.105 0.548152C13.4373 0.597131 13.7537 0.7224 14.0295 0.914141C15.3948 1.8686 16.8114 3.26193 17.6804 4.49849C19.3247 4.16729 21.0382 4.1518 22.6705 4.45354C23.5411 3.22833 24.9399 1.85724 26.2888 0.914294C26.5645 0.722522 26.8809 0.597226 27.2132 0.548231C27.5455 0.499235 27.8846 0.527871 28.204 0.631894C28.5233 0.735916 28.8143 0.912497 29.054 1.14779C29.2936 1.38309 29.4756 1.67071 29.5855 1.98809C30.5955 4.87493 31.0192 8.07577 31.3979 11.3754C31.3979 11.3774 31.3979 11.3794 31.3979 11.3814C31.7601 12.3622 31.9437 13.3737 31.9437 14.3893C31.9437 16.9497 30.7283 19.077 28.4288 20.5406C26.3194 21.8833 23.4487 22.5931 20.1264 22.5931ZM9.47382 11.6169C9.11993 12.5267 8.9406 13.4577 8.9406 14.3883C8.9406 16.7219 10.0551 18.6648 12.1632 20.0071C14.1421 21.2671 16.9703 21.9611 20.1264 21.9611C23.2824 21.9611 26.1104 21.2671 28.0894 20.0071C30.1972 18.6648 31.3108 16.7219 31.3108 14.3883C31.3108 13.4233 31.1313 12.461 30.7775 11.5282C30.7586 11.4785 30.7526 11.4248 30.7601 11.3722C30.3876 8.13545 29.9685 4.9998 28.9875 2.19595C28.9093 1.96903 28.7791 1.76351 28.6075 1.59574C28.4358 1.42796 28.2274 1.30257 27.9987 1.22953C27.7735 1.15576 27.5342 1.13562 27.2998 1.17072C27.0654 1.20582 26.8425 1.29519 26.6488 1.43171C25.2946 2.37834 23.8907 3.77091 23.0723 4.97955C23.0373 5.03096 22.988 5.07095 22.9305 5.09455C22.8729 5.11814 22.8097 5.12429 22.7487 5.11224C21.0613 4.77184 19.2742 4.7901 17.5733 5.16623C17.5311 5.17559 17.4874 5.17618 17.4449 5.16795C17.4025 5.15973 17.3621 5.14287 17.3265 5.11842C17.2908 5.09397 17.2605 5.06245 17.2375 5.02582C17.2145 4.98918 17.1993 4.94822 17.1928 4.90545C16.3678 3.71446 14.9935 2.35901 13.6667 1.43156C13.4731 1.29519 13.2503 1.2059 13.0161 1.1708C12.7819 1.1357 12.5428 1.15575 12.3177 1.22938C12.089 1.30235 11.8805 1.42772 11.7088 1.5955C11.5371 1.76328 11.407 1.96884 11.3287 2.1958C10.3485 4.99734 9.92942 8.13023 9.55727 11.3637C9.55656 11.3752 9.55522 11.3866 9.55328 11.398C9.55144 11.4142 9.5496 11.4302 9.54776 11.4463C9.54089 11.5093 9.51511 11.5688 9.47382 11.6169Z" fill="#363636"/>
<path d="M11.5792 8.17356C11.5403 8.17361 11.5019 8.16544 11.4664 8.1496C11.4309 8.13376 11.3991 8.1106 11.3732 8.08164C11.3472 8.05268 11.3277 8.01857 11.3159 7.98154C11.304 7.94451 11.3001 7.9054 11.3044 7.86676C11.3198 7.73315 11.6652 4.58492 11.8874 3.63384C11.9188 3.49897 11.9876 3.37565 12.0857 3.27798C12.1839 3.1803 12.3076 3.1122 12.4426 3.08144C12.5777 3.05068 12.7186 3.0585 12.8494 3.10402C12.9802 3.14953 13.0956 3.23091 13.1824 3.33885C13.6349 3.90106 14.2796 4.76363 14.7793 5.67851C14.8136 5.74113 14.8223 5.81459 14.8036 5.88349C14.7849 5.95239 14.7402 6.01137 14.6789 6.04805C13.7572 6.60198 12.7996 7.2774 11.7518 8.11312C11.7027 8.15221 11.6419 8.17351 11.5792 8.17356ZM12.609 3.61589C12.5944 3.61595 12.5798 3.6176 12.5655 3.6208C12.5313 3.62801 12.4998 3.64498 12.475 3.66967C12.4502 3.69436 12.433 3.72571 12.4256 3.75993C12.2709 4.4217 12.0443 6.27477 11.9282 7.27279C12.7116 6.6707 13.4488 6.15696 14.1643 5.71471C13.7055 4.92148 13.1518 4.18347 12.7509 3.68615C12.7343 3.66419 12.7129 3.6464 12.6882 3.63421C12.6636 3.62201 12.6364 3.61574 12.609 3.61589Z" fill="#363636"/>
<g opacity="0.2">
<path d="M21.2674 5.7109C22.6725 5.93487 23.8101 6.35396 24.6218 7.01082C24.9096 7.24368 24.7964 7.70909 24.4349 7.78932C22.8107 8.14996 21.5556 7.76202 20.802 6.35779C20.6288 6.03504 20.9057 5.65323 21.2674 5.7109Z" fill="white"/>
</g>
<g opacity="0.2">
<path d="M26.3928 9.27534C26.6554 9.07745 26.6478 8.62416 26.3756 8.2629C26.1035 7.90164 25.67 7.76895 25.4072 7.96668C25.1445 8.16441 25.3152 8.49561 25.5867 8.8564C25.8582 9.2172 26.1301 9.4723 26.3928 9.27534Z" fill="white"/>
</g>
<g opacity="0.3">
<path d="M14.9244 16.3129C14.6555 16.407 14.3726 16.4553 14.0876 16.4558C13.7475 16.4558 13.4096 16.4021 13.0862 16.2965L11.248 11.5637C11.6009 11.0927 12.1198 10.7798 12.7053 10.5986L14.9244 16.3129Z" fill="white"/>
</g>
<g opacity="0.3">
<path d="M26.8401 16.1589C26.4146 16.3537 25.9523 16.4548 25.4844 16.4555C25.3598 16.4555 25.2355 16.446 25.1124 16.4272L23.1074 11.2641C23.4966 10.8742 24.0264 10.6092 24.6361 10.4844L26.8401 16.1589Z" fill="white"/>
</g>
<g opacity="0.3">
<path d="M28.4611 14.61C28.2488 15.0251 27.9532 15.3919 27.5928 15.6877L25.54 10.4009C26.0068 10.4056 26.477 10.4722 26.9088 10.6117L28.4611 14.61Z" fill="white"/>
</g>
<g opacity="0.3">
<path d="M16.7837 14.61C16.5712 15.025 16.2756 15.3919 15.9153 15.6877L13.8623 10.4009C14.3289 10.4056 14.7991 10.4722 15.2309 10.6117L16.7837 14.61Z" fill="white"/>
</g>
<path d="M31.3284 10.7075C30.9201 10.7479 30.508 10.6892 30.1271 10.5366C29.996 10.4845 29.8759 10.4082 29.7619 10.3252C26.8976 8.21521 23.4064 9.06151 20.9422 10.7932C20.1714 10.1081 19.4005 10.1081 18.6297 10.7932C16.1654 9.06151 12.6744 8.21521 9.80993 10.3252C9.69611 10.4082 9.57584 10.4845 9.44484 10.5366C9.06423 10.6893 8.65242 10.7479 8.24433 10.7075C8.22021 10.7049 8.19581 10.7073 8.17271 10.7148C8.14961 10.7222 8.12833 10.7344 8.11026 10.7506C8.09218 10.7668 8.07772 10.7866 8.06781 10.8088C8.0579 10.8309 8.05276 10.8549 8.05273 10.8792V11.4791C8.05311 11.5193 8.0675 11.5582 8.09342 11.589C8.11935 11.6198 8.15519 11.6406 8.19478 11.6478C8.82372 11.7687 9.16274 12.2697 9.27871 13.0626C10.9075 20.4258 18.7272 18.3703 18.7547 12.2114C18.7554 12.0708 18.8049 11.9349 18.8948 11.8268C18.9848 11.7187 19.1094 11.6453 19.2476 11.619C19.614 11.5477 19.9744 11.5423 20.3272 11.6081C20.4652 11.6343 20.5897 11.7078 20.6793 11.816C20.7689 11.9241 20.818 12.0601 20.8181 12.2005C20.8366 18.3672 28.6645 20.4298 30.294 13.0626C30.4094 12.2697 30.7484 11.7687 31.3772 11.6478C31.4168 11.6407 31.4528 11.6199 31.4787 11.5891C31.5046 11.5583 31.519 11.5194 31.5192 11.4791V10.8792C31.5193 10.8549 31.5143 10.8309 31.5045 10.8088C31.4946 10.7867 31.4803 10.7668 31.4622 10.7506C31.4442 10.7344 31.423 10.7222 31.3999 10.7148C31.3769 10.7073 31.3525 10.7049 31.3284 10.7075ZM14.0876 16.4555C12.3751 16.4555 10.9028 15.0903 10.7742 13.423C10.6055 11.2257 12.3755 10.3999 14.0876 10.3999C15.7997 10.3999 17.1621 11.3541 17.1621 13.0269C17.1621 14.6997 15.801 16.4555 14.0876 16.4555ZM28.7987 13.423C28.6697 15.0903 27.1974 16.4555 25.4853 16.4555C23.7732 16.4555 22.4108 14.6983 22.4108 13.0269C22.4108 11.3555 23.7727 10.3999 25.4853 10.3999C27.1978 10.3999 28.9671 11.2257 28.7982 13.423H28.7987Z" fill="#F42C4F"/>
<path d="M13.936 17.8034C12.985 17.8034 12.0659 17.4701 11.3085 16.8434C10.3216 16.0269 9.60694 14.7224 9.24154 13.0709C9.12143 12.251 8.77705 11.7987 8.18784 11.6855C8.13952 11.6765 8.09583 11.651 8.06425 11.6133C8.03266 11.5757 8.01513 11.5282 8.01465 11.479V10.8791C8.01467 10.8495 8.02093 10.8202 8.03302 10.7931C8.04511 10.766 8.06277 10.7418 8.08483 10.722C8.10689 10.7022 8.13288 10.6873 8.16109 10.6782C8.1893 10.6691 8.21911 10.6661 8.24858 10.6692C8.65054 10.7084 9.05603 10.6505 9.43099 10.5005C9.54083 10.4569 9.65419 10.3911 9.78765 10.2939C12.7288 8.12756 16.2765 9.10288 18.6273 10.7443C19.3965 10.0742 20.1767 10.0744 20.9452 10.7443C23.2956 9.10288 26.8437 8.12741 29.785 10.294C29.9183 10.3911 30.0317 10.4569 30.1415 10.5005C30.5167 10.6505 30.9224 10.7083 31.3245 10.6692C31.354 10.6661 31.3837 10.6691 31.4119 10.6783C31.4401 10.6874 31.466 10.7023 31.488 10.7221C31.51 10.7419 31.5276 10.7661 31.5396 10.7932C31.5516 10.8202 31.5578 10.8495 31.5577 10.8791V11.479C31.5573 11.5282 31.5397 11.5757 31.5081 11.6133C31.4766 11.651 31.4328 11.6765 31.3845 11.6855C30.7953 11.7987 30.4511 12.251 30.3322 13.0681C29.9662 14.7231 29.251 16.0287 28.2636 16.8442C27.3903 17.5663 26.3015 17.8984 25.1984 17.78C24.037 17.6548 22.9498 17.0602 22.1374 16.1057C21.2538 15.0675 20.7844 13.7173 20.78 12.2009C20.7796 12.0694 20.7334 11.9422 20.6495 11.841C20.5655 11.7398 20.4489 11.6709 20.3198 11.6463C19.9798 11.582 19.6212 11.5849 19.2546 11.6571C19.1254 11.6821 19.0088 11.751 18.9246 11.8521C18.8404 11.9533 18.7938 12.0804 18.7927 12.212C18.7861 13.7264 18.3153 15.0743 17.4316 16.1103C16.6185 17.0631 15.5322 17.6563 14.3715 17.7804C14.2269 17.7958 14.0815 17.8034 13.936 17.8034ZM8.22603 10.7449C8.19273 10.7448 8.16059 10.7571 8.13583 10.7794C8.12174 10.7919 8.11048 10.8072 8.10281 10.8244C8.09513 10.8416 8.09123 10.8603 8.09135 10.8791V11.479C8.0918 11.5104 8.10312 11.5406 8.12338 11.5645C8.14364 11.5884 8.17157 11.6046 8.20241 11.6102C8.81877 11.7286 9.19368 12.2154 9.31701 13.0569C10.1432 16.7922 12.4659 17.9074 14.3639 17.7037C16.5158 17.4736 18.7019 15.5129 18.7164 12.212C18.7177 12.0627 18.7705 11.9183 18.866 11.8035C18.9615 11.6887 19.0938 11.6105 19.2405 11.5821C19.6169 11.5088 19.9851 11.5054 20.3345 11.5711C20.4809 11.5995 20.613 11.6778 20.7081 11.7927C20.8032 11.9076 20.8555 12.0519 20.8561 12.2011C20.8659 15.5072 23.0518 17.4719 25.206 17.704C27.1047 17.9083 29.429 16.7948 30.2561 13.0549C30.3788 12.2163 30.7528 11.7294 31.3695 11.611C31.4003 11.6054 31.4283 11.5892 31.4485 11.5653C31.4687 11.5414 31.48 11.5111 31.4804 11.4798V10.8799C31.4805 10.861 31.4766 10.8424 31.469 10.8251C31.4613 10.8079 31.4502 10.7925 31.4361 10.7799C31.4221 10.7673 31.4056 10.7578 31.3877 10.752C31.3697 10.7462 31.3508 10.7443 31.3321 10.7464C30.9176 10.7868 30.4995 10.7273 30.1127 10.5729C29.9966 10.5269 29.8778 10.4582 29.739 10.3569C26.8203 8.20672 23.2922 9.18924 20.9645 10.8254L20.9397 10.8429L20.917 10.8228C20.1561 10.1465 19.4163 10.1466 18.6555 10.8228L18.6328 10.8429L18.6074 10.8248C16.2789 9.18848 12.751 8.20626 9.8329 10.3562C9.69392 10.4576 9.57519 10.5261 9.45906 10.5723C9.07252 10.7267 8.65458 10.7862 8.2403 10.7458C8.23557 10.7452 8.2308 10.7449 8.22603 10.7449ZM25.4845 16.4938C23.7029 16.4938 22.3717 14.6635 22.3717 13.027C22.3717 11.4329 23.6226 10.3618 25.4845 10.3618C26.6257 10.3618 27.6153 10.7236 28.1996 11.3543C28.6876 11.8813 28.9021 12.5782 28.837 13.4252C28.7059 15.1175 27.2019 16.4938 25.4845 16.4938ZM25.4845 10.4384C23.6685 10.4384 22.4484 11.4786 22.4484 13.0269C22.4484 14.6273 23.7467 16.417 25.4845 16.417C27.1628 16.417 28.6324 15.0724 28.7603 13.4197C28.8237 12.5941 28.6161 11.9164 28.1432 11.4059C27.5735 10.791 26.6044 10.4384 25.4845 10.4384ZM14.0881 16.4938C12.37 16.4938 10.8667 15.1175 10.7358 13.4258C10.6706 12.578 10.8849 11.8811 11.373 11.3549C11.9572 10.7242 12.9468 10.3624 14.0882 10.3624C15.95 10.3624 17.201 11.4335 17.201 13.0276C17.2009 14.6635 15.8695 16.4938 14.0881 16.4938ZM14.0881 10.4384C12.9682 10.4384 11.9989 10.7912 11.4293 11.4062C10.9564 11.9168 10.7488 12.5944 10.8122 13.42C10.9401 15.0726 12.4097 16.4171 14.0881 16.4171C15.8256 16.4171 17.1242 14.6273 17.1242 13.027C17.1242 11.4786 15.904 10.4384 14.0881 10.4384Z" fill="#363636"/>
<g opacity="0.55">
<path d="M31.3284 10.7075C30.9201 10.7479 30.508 10.6892 30.1271 10.5366C29.996 10.4845 29.8759 10.4082 29.7619 10.3252C26.8976 8.21521 23.4064 9.06151 20.9422 10.7932C20.1714 10.1081 19.4005 10.1081 18.6297 10.7932C16.1654 9.06151 12.6744 8.21521 9.80993 10.3252C9.69611 10.4082 9.57584 10.4845 9.44484 10.5366C9.06423 10.6893 8.65242 10.7479 8.24433 10.7075C8.22021 10.7049 8.19581 10.7073 8.17271 10.7148C8.14961 10.7222 8.12833 10.7344 8.11026 10.7506C8.09218 10.7668 8.07772 10.7866 8.06781 10.8088C8.0579 10.8309 8.05276 10.8549 8.05273 10.8792V11.4621C8.05274 11.4378 8.05786 11.4138 8.06776 11.3917C8.07767 11.3695 8.09213 11.3497 8.11021 11.3335C8.12829 11.3173 8.14958 11.3051 8.17269 11.2977C8.1958 11.2903 8.22021 11.2879 8.24433 11.2906C8.65243 11.3309 9.06424 11.2722 9.44484 11.1195C9.57584 11.0674 9.69611 10.9913 9.80993 10.9081C12.6744 8.79813 16.1654 9.64443 18.6304 11.3763C19.4013 10.6911 20.1722 10.6911 20.9429 11.3763C23.4072 9.64443 26.8984 8.79813 29.7634 10.9081C29.8774 10.9913 29.9975 11.0674 30.1287 11.1195C30.5096 11.2722 30.9216 11.3309 31.33 11.2906C31.354 11.2879 31.3784 11.2904 31.4014 11.2978C31.4244 11.3053 31.4457 11.3175 31.4637 11.3337C31.4817 11.3498 31.496 11.3697 31.5059 11.3918C31.5157 11.4139 31.5207 11.4379 31.5206 11.4621V10.8792C31.5207 10.8548 31.5157 10.8307 31.5058 10.8084C31.4958 10.7862 31.4813 10.7663 31.4632 10.7501C31.445 10.7338 31.4236 10.7216 31.4004 10.7143C31.3771 10.707 31.3526 10.7047 31.3284 10.7075ZM28.7973 13.4366C28.6614 15.0978 27.1924 16.4555 25.4839 16.4555C23.8723 16.4555 22.5708 14.8987 22.4239 13.322C22.4142 13.4178 22.4094 13.514 22.4094 13.6103C22.4094 15.2823 23.7713 17.0389 25.4839 17.0389C27.1964 17.0389 28.6689 15.6737 28.7973 14.0064C28.813 13.8168 28.8129 13.6262 28.7969 13.4366H28.7973ZM17.1481 13.322C17.0013 14.8987 15.7005 16.4555 14.0881 16.4555C12.3803 16.4555 10.9115 15.0978 10.7756 13.4366C10.7593 13.6262 10.7588 13.8167 10.7742 14.0064C10.9032 15.6737 12.3755 17.0389 14.0876 17.0389C15.7997 17.0389 17.1621 15.2817 17.1621 13.6103C17.1622 13.514 17.1574 13.4178 17.1477 13.322H17.1481Z" fill="white"/>
</g>
<path d="M13.9349 18.0285C12.9319 18.0285 11.9626 17.6772 11.1642 17.0168C10.1384 16.1682 9.39746 14.8206 9.02117 13.1195C9.01979 13.1134 9.01872 13.1071 9.0178 13.1008C8.87974 12.1543 8.45344 11.9657 8.14495 11.9067C8.04525 11.8878 7.95525 11.8347 7.89033 11.7567C7.82541 11.6787 7.78962 11.5806 7.78906 11.4791V10.8791C7.78903 10.8179 7.80189 10.7574 7.8268 10.7015C7.85171 10.6456 7.88811 10.5956 7.93363 10.5546C7.97915 10.5137 8.03278 10.4829 8.09102 10.4641C8.14926 10.4452 8.21081 10.4389 8.27166 10.4455C8.63741 10.481 9.00635 10.4284 9.34761 10.2921C9.43965 10.2557 9.53675 10.1986 9.65441 10.1127C12.6317 7.91911 16.2004 8.83706 18.6145 10.4637C19.3841 9.86714 20.1873 9.86714 20.9569 10.4637C23.371 8.83767 26.9395 7.91942 29.9179 10.1135C30.0348 10.1986 30.1327 10.2557 30.2247 10.2922C30.5659 10.4284 30.9346 10.481 31.3002 10.4456C31.3611 10.4391 31.4226 10.4454 31.4809 10.4642C31.5391 10.483 31.5927 10.5139 31.6382 10.5548C31.6838 10.5957 31.7202 10.6457 31.7451 10.7016C31.77 10.7575 31.7828 10.8181 31.7828 10.8793V11.4792C31.7823 11.5807 31.7465 11.6788 31.6817 11.7567C31.6168 11.8347 31.5269 11.8878 31.4272 11.9067C31.1186 11.9661 30.6926 12.1545 30.5541 13.101C30.5532 13.1073 30.5521 13.1135 30.5507 13.1197C30.1743 14.8213 29.4327 16.1694 28.4062 17.018C27.4858 17.779 26.3374 18.129 25.1734 18.0036C23.9544 17.8723 22.815 17.25 21.9652 16.2513C21.0468 15.1722 20.5588 13.7718 20.5539 12.2016C20.5538 12.1225 20.5262 12.0459 20.4758 11.9849C20.4255 11.9239 20.3555 11.8824 20.2778 11.8673C19.9661 11.8084 19.6361 11.8118 19.2973 11.8776C19.2192 11.8926 19.1487 11.9342 19.0978 11.9953C19.0468 12.0563 19.0186 12.1331 19.0178 12.2126C19.0107 13.7808 18.5214 15.1789 17.6027 16.2561C16.7524 17.2532 15.6132 17.8735 14.3951 18.0039C14.2422 18.0203 14.0886 18.0285 13.9349 18.0285ZM19.8254 11.2984C20.0103 11.2981 20.1948 11.3151 20.3765 11.3493C20.5745 11.3872 20.7531 11.4928 20.8819 11.648C21.0106 11.8032 21.0814 11.9983 21.0821 12.1999C21.0914 15.3734 23.1762 17.258 25.2306 17.4795C27.0317 17.6743 29.2379 16.602 30.0347 13.0155C30.1701 12.1065 30.5809 11.5651 31.2565 11.4048V10.9782C30.8385 11.0033 30.42 10.9361 30.0308 10.7814C29.8966 10.728 29.7622 10.6507 29.6076 10.5381C26.784 8.45801 23.3589 9.41829 21.0939 11.0089C21.0453 11.043 20.9867 11.0597 20.9274 11.0563C20.8682 11.0529 20.8118 11.0296 20.7675 10.9902C20.0979 10.3953 19.4745 10.3953 18.805 10.9902C18.7607 11.0297 18.7043 11.053 18.645 11.0564C18.5857 11.0598 18.527 11.043 18.4784 11.0089C16.2141 9.41752 12.789 8.45801 9.96642 10.5373C9.81087 10.6507 9.67649 10.728 9.54242 10.7814C9.15314 10.9359 8.73469 11.0031 8.3166 10.9782V11.4042C8.99156 11.564 9.40298 12.1056 9.53828 13.0149C10.3346 16.6 12.5391 17.6721 14.3397 17.4788C16.3922 17.2593 18.4772 15.3788 18.4912 12.2092C18.4928 12.0079 18.5639 11.8134 18.6925 11.6585C18.8211 11.5036 18.9992 11.3979 19.1968 11.3593C19.4037 11.319 19.614 11.2986 19.8248 11.2984H19.8254ZM25.4848 16.7191C23.5742 16.7191 22.1467 14.7698 22.1467 13.027C22.1467 11.2981 23.4882 10.1365 25.4848 10.1365C26.6886 10.1365 27.7383 10.5246 28.3649 11.2013C28.8974 11.776 29.1319 12.5303 29.0615 13.4432C28.9211 15.2496 27.3166 16.7191 25.4842 16.7191H25.4848ZM25.4848 10.6636C24.0857 10.6636 22.6739 11.3944 22.6739 13.027C22.6739 14.521 23.876 16.192 25.4848 16.192C27.0481 16.192 28.4169 14.9407 28.5359 13.4025C28.5944 12.6423 28.4068 12.0219 27.9782 11.5594C27.4503 10.9902 26.5416 10.6636 25.4842 10.6636H25.4848ZM14.0872 16.7191C12.2547 16.7191 10.6501 15.2496 10.5104 13.4434C10.4403 12.5303 10.6745 11.776 11.207 11.2013C11.8336 10.5246 12.8833 10.1365 14.0872 10.1365C16.0837 10.1365 17.4252 11.2981 17.4252 13.027C17.4255 14.7698 15.9989 16.7191 14.0877 16.7191H14.0872ZM14.0872 10.6636C13.0297 10.6636 12.1209 10.9902 11.5937 11.5594C11.1651 12.0221 10.9775 12.6423 11.0359 13.4027C11.155 14.9407 12.5239 16.192 14.0872 16.192C15.6959 16.192 16.898 14.521 16.898 13.027C16.8984 11.3944 15.4867 10.6636 14.0877 10.6636H14.0872Z" fill="#363636"/>
<path d="M9.87338 33.3623H32.8466C33.0045 33.3623 33.156 33.4251 33.2678 33.5368C33.3795 33.6485 33.4422 33.8 33.4422 33.958V38.5928C33.4422 38.7508 33.3795 38.9023 33.2678 39.014C33.156 39.1257 33.0045 39.1884 32.8466 39.1884H9.87338C9.52468 39.1884 9.19026 39.0499 8.94369 38.8033C8.69712 38.5568 8.55859 38.2224 8.55859 37.8736V34.6771C8.55859 34.3284 8.69712 33.994 8.94369 33.7474C9.19026 33.5008 9.52468 33.3623 9.87338 33.3623Z" fill="#6E76F1"/>
<g opacity="0.7">
<path d="M32.8466 33.3623H9.87338C9.52468 33.3623 9.19026 33.5008 8.94369 33.7474C8.69712 33.994 8.55859 34.3284 8.55859 34.6771V37.8736C8.55839 38.0884 8.61107 38.3 8.71199 38.4895C8.71199 38.4888 8.71199 38.488 8.71199 38.4872V35.2907C8.71199 34.942 8.85052 34.6076 9.09709 34.361C9.34366 34.1144 9.67808 33.9759 10.0268 33.9759H11.736C11.8796 34.2345 12.7239 34.433 13.744 34.433C14.7641 34.433 15.6084 34.2345 15.752 33.9759H33C33.0834 33.9759 33.166 33.9935 33.2422 34.0275C33.3184 34.0616 33.3865 34.1113 33.4422 34.1735V33.9587C33.4423 33.8804 33.427 33.8029 33.3971 33.7305C33.3673 33.6582 33.3234 33.5924 33.2681 33.537C33.2127 33.4816 33.147 33.4377 33.0747 33.4077C33.0024 33.3777 32.9249 33.3623 32.8466 33.3623Z" fill="white"/>
</g>
<path d="M11.172 33.354H10.2354V39.1887H11.172V33.354Z" fill="white"/>
<path d="M13.0109 33.354H12.0742V39.1887H13.0109V33.354Z" fill="white"/>
<g opacity="0.3">
<path d="M32.8466 37.6546H9.87338C9.52468 37.6546 9.19026 37.5161 8.94369 37.2695C8.69712 37.023 8.55859 36.6885 8.55859 36.3398V37.8738C8.55859 38.2225 8.69712 38.557 8.94369 38.8035C9.19026 39.0501 9.52468 39.1886 9.87338 39.1886H32.8466C32.9248 39.1887 33.0023 39.1733 33.0745 39.1433C33.1468 39.1134 33.2125 39.0695 33.2678 39.0142C33.3231 38.9589 33.367 38.8932 33.3969 38.821C33.4268 38.7487 33.4422 38.6712 33.4422 38.593V37.059C33.4422 37.1372 33.4268 37.2147 33.3969 37.287C33.367 37.3592 33.3231 37.4249 33.2678 37.4802C33.2125 37.5355 33.1468 37.5794 33.0745 37.6093C33.0023 37.6393 32.9248 37.6547 32.8466 37.6546Z" fill="#363636"/>
</g>
<path d="M32.8457 39.4954H9.87272C9.44277 39.4949 9.03056 39.324 8.72652 39.02C8.42249 38.716 8.25146 38.3038 8.25098 37.8738V34.6773C8.25146 34.2473 8.42249 33.8351 8.72652 33.5311C9.03056 33.2271 9.44277 33.0561 9.87272 33.0557H32.8457C33.085 33.0559 33.3144 33.1511 33.4836 33.3203C33.6527 33.4895 33.7479 33.7189 33.7482 33.9581V38.5929C33.7479 38.8322 33.6527 39.0616 33.4836 39.2308C33.3144 39.3999 33.085 39.4951 32.8457 39.4954ZM9.87272 33.6693C9.60546 33.6695 9.34922 33.7758 9.16022 33.9648C8.97122 34.1538 8.8649 34.41 8.86458 34.6773V37.8738C8.8649 38.1411 8.97122 38.3973 9.16022 38.5863C9.34922 38.7752 9.60546 38.8815 9.87272 38.8818H32.8457C32.9223 38.8817 32.9957 38.8512 33.0499 38.7971C33.104 38.7429 33.1345 38.6695 33.1346 38.5929V33.9577C33.1345 33.8811 33.104 33.8077 33.0499 33.7535C32.9957 33.6994 32.9223 33.6689 32.8457 33.6688L9.87272 33.6693Z" fill="#363636"/>
<path d="M20.7493 34.6938H33.4417V37.8988H20.7493C20.616 37.8988 20.484 37.8726 20.3609 37.8216C20.2378 37.7706 20.1259 37.6958 20.0316 37.6016C19.9374 37.5073 19.8626 37.3955 19.8116 37.2723C19.7606 37.1492 19.7344 37.0172 19.7344 36.8839V35.7087C19.7344 35.5755 19.7606 35.4435 19.8116 35.3204C19.8626 35.1972 19.9374 35.0853 20.0316 34.9911C20.1259 34.8969 20.2378 34.8221 20.3609 34.7711C20.484 34.7201 20.616 34.6938 20.7493 34.6938Z" fill="white"/>
<g opacity="0.3">
<path d="M21.6697 37.208C21.5364 37.208 21.4044 37.1818 21.2813 37.1308C21.1582 37.0798 21.0463 37.005 20.952 36.9108C20.8578 36.8165 20.783 36.7047 20.732 36.5815C20.681 36.4584 20.6548 36.3264 20.6548 36.1931V35.0179C20.6549 34.9084 20.6729 34.7996 20.708 34.6958C20.4464 34.7062 20.199 34.8174 20.0175 35.0061C19.836 35.1948 19.7346 35.4464 19.7344 35.7082V36.8834C19.7344 37.0167 19.7606 37.1487 19.8116 37.2718C19.8626 37.395 19.9374 37.5068 20.0316 37.6011C20.1259 37.6953 20.2378 37.7701 20.3609 37.8211C20.484 37.8721 20.616 37.8983 20.7493 37.8983H33.4417V37.208H21.6697Z" fill="#363636"/>
</g>
<path d="M33.4417 38.1796H20.7492C20.4056 38.1792 20.0761 38.0425 19.8331 37.7995C19.5902 37.5565 19.4535 37.227 19.4531 36.8834V35.7083C19.4535 35.3647 19.5902 35.0352 19.8331 34.7922C20.0761 34.5492 20.4056 34.4125 20.7492 34.4121H33.4417C33.5163 34.4121 33.5878 34.4417 33.6405 34.4945C33.6933 34.5472 33.723 34.6187 33.723 34.6933V37.8983C33.723 37.9729 33.6934 38.0445 33.6406 38.0972C33.5878 38.15 33.5163 38.1796 33.4417 38.1796ZM20.7492 34.9746C20.5547 34.9748 20.3682 35.0522 20.2307 35.1898C20.0931 35.3273 20.0158 35.5138 20.0156 35.7083V36.8834C20.0158 37.0779 20.0932 37.2644 20.2307 37.4019C20.3682 37.5395 20.5547 37.6169 20.7492 37.6171H33.1605V34.9746H20.7492Z" fill="#363636"/>
<g opacity="0.4">
<path d="M30.3623 35.6419C30.6189 35.6097 30.8756 35.5945 31.1322 35.5836L31.9021 35.5581C32.1588 35.5486 32.4154 35.5446 32.6719 35.5382C32.9284 35.5318 33.1852 35.5288 33.4418 35.5269V35.757C33.1852 35.755 32.9285 35.7519 32.6719 35.7456C32.4153 35.7393 32.1588 35.735 31.9021 35.7255L31.1322 35.7002C30.8756 35.6892 30.6189 35.6741 30.3623 35.6419Z" fill="#363636"/>
<path d="M19.7588 35.5267C21.208 35.5174 22.6571 35.5251 24.1063 35.5335L26.2801 35.5559C27.0046 35.5654 27.7293 35.5559 28.4538 35.6418C27.7293 35.7271 27.0046 35.7185 26.2801 35.7275L24.1063 35.7499C22.6571 35.7585 21.208 35.7662 19.7588 35.7568V35.5267Z" fill="#363636"/>
<path d="M25.9189 36.3341C26.546 36.2492 27.173 36.2522 27.7999 36.2445L29.6808 36.2227L31.5616 36.2132C32.1886 36.2123 32.8155 36.2132 33.4424 36.219V36.4491C32.8154 36.455 32.1885 36.4568 31.5616 36.4548L29.6808 36.4454L27.7999 36.4235C27.173 36.416 26.546 36.4189 25.9189 36.3341Z" fill="#363636"/>
<path d="M19.7588 36.2193C20.152 36.216 20.5452 36.216 20.9383 36.2193L22.1176 36.2321L23.297 36.2551C23.6901 36.2613 24.0833 36.2693 24.4765 36.3343C24.0833 36.3992 23.6901 36.4073 23.297 36.4135L22.1176 36.4365L20.9383 36.4494C20.5451 36.4521 20.1519 36.4521 19.7588 36.4494V36.2193Z" fill="#363636"/>
<path d="M29.6807 37.0261C29.9941 36.9801 30.3076 36.9602 30.621 36.9482L31.5615 36.9244C31.8749 36.9151 32.1884 36.9141 32.502 36.9103C32.6587 36.9079 32.8154 36.9071 32.9722 36.9082C33.1289 36.9082 33.2856 36.9082 33.4423 36.9111V37.1412C33.2856 37.1439 33.1289 37.1438 32.9722 37.1441C32.8154 37.1444 32.6586 37.1441 32.502 37.1419C32.1884 37.1381 31.8749 37.1372 31.5615 37.1278L30.621 37.1041C30.3076 37.0921 29.9941 37.0723 29.6807 37.0261Z" fill="#363636"/>
<path d="M19.7588 36.9111L21.6964 36.9217L23.6338 36.9403L25.5713 36.9654C26.2171 36.9733 26.863 36.9808 27.5087 37.0268C26.863 37.0728 26.2171 37.0797 25.5713 37.0882L23.6338 37.1133L21.6964 37.1319L19.7588 37.1425V36.9111Z" fill="#363636"/>
</g>
<path d="M32.1276 45.0146H9.15441C8.99644 45.0146 8.84493 44.9519 8.73322 44.8402C8.62152 44.7285 8.55876 44.577 8.55876 44.419V39.7837C8.55876 39.6257 8.62152 39.4742 8.73322 39.3625C8.84493 39.2508 8.99644 39.1881 9.15441 39.1881H32.1276C32.4763 39.1881 32.8107 39.3266 33.0573 39.5732C33.3039 39.8197 33.4424 40.1541 33.4424 40.5028V43.6999C33.4424 44.0486 33.3039 44.383 33.0573 44.6296C32.8107 44.8761 32.4763 45.0146 32.1276 45.0146Z" fill="#F42C4F"/>
<path d="M30.829 45.0146H31.7656V39.1799H30.829V45.0146Z" fill="#FFBC1F"/>
<path d="M28.9891 45.0146H29.9258V39.1799H28.9891V45.0146Z" fill="#FFBC1F"/>
<g opacity="0.3">
<path d="M9.15425 43.4808H32.1274C32.3001 43.4808 32.4711 43.4468 32.6306 43.3807C32.7901 43.3146 32.935 43.2178 33.0571 43.0957C33.1792 42.9736 33.2761 42.8287 33.3421 42.6692C33.4082 42.5096 33.4422 42.3387 33.4422 42.166V43.7C33.4422 43.8727 33.4082 44.0436 33.3421 44.2032C33.2761 44.3627 33.1792 44.5076 33.0571 44.6297C32.935 44.7518 32.7901 44.8486 32.6306 44.9147C32.4711 44.9808 32.3001 45.0148 32.1274 45.0148H9.15425C9.07602 45.0148 8.99855 44.9994 8.92627 44.9695C8.854 44.9396 8.78833 44.8957 8.73301 44.8404C8.6777 44.7851 8.63382 44.7194 8.60389 44.6471C8.57397 44.5748 8.55857 44.4974 8.55859 44.4192V42.8856C8.55868 43.0435 8.62147 43.1949 8.73317 43.3065C8.84487 43.4182 8.99634 43.4808 9.15425 43.4808Z" fill="#363636"/>
</g>
<g opacity="0.7">
<path d="M9.15425 39.1885H32.1274C32.3001 39.1885 32.4711 39.2225 32.6306 39.2886C32.7901 39.3546 32.935 39.4515 33.0571 39.5736C33.1792 39.6957 33.2761 39.8406 33.3421 40.0001C33.4082 40.1596 33.4422 40.3306 33.4422 40.5033V43.6998C33.4424 43.9146 33.3897 44.1261 33.2888 44.3157C33.2888 44.3157 33.2888 44.3142 33.2888 44.3134V41.1169C33.2888 40.7682 33.1503 40.4337 32.9037 40.1872C32.6572 39.9406 32.3227 39.8021 31.974 39.8021H30.2648C30.1213 40.0607 29.2769 40.2592 28.2568 40.2592C27.2367 40.2592 26.3924 40.0607 26.2488 39.8021H9.00085C8.91738 39.8021 8.83485 39.8197 8.75864 39.8537C8.68244 39.8877 8.61427 39.9375 8.55859 39.9997V39.7841C8.55857 39.7059 8.57397 39.6284 8.60389 39.5562C8.63382 39.4839 8.6777 39.4182 8.73301 39.3629C8.78833 39.3076 8.854 39.2637 8.92627 39.2338C8.99855 39.2039 9.07602 39.1885 9.15425 39.1885Z" fill="white"/>
</g>
<path d="M32.1266 45.3216H9.15343C8.91417 45.3213 8.68479 45.2261 8.51561 45.0569C8.34643 44.8877 8.25126 44.6584 8.25098 44.4191V39.7843C8.25126 39.545 8.34643 39.3157 8.51561 39.1465C8.68479 38.9773 8.91417 38.8821 9.15343 38.8818H32.1266C32.5565 38.8823 32.9687 39.0533 33.2727 39.3573C33.5767 39.6613 33.7477 40.0735 33.7482 40.5034V43.7C33.7477 44.1299 33.5767 44.5421 33.2727 44.8461C32.9687 45.1501 32.5565 45.3211 32.1266 45.3216ZM9.15343 39.4954C9.07684 39.4955 9.00342 39.526 8.94927 39.5801C8.89512 39.6343 8.86466 39.7077 8.86458 39.7843V44.4196C8.86466 44.4962 8.89512 44.5696 8.94927 44.6237C9.00342 44.6779 9.07684 44.7083 9.15343 44.7084H32.1266C32.3938 44.7081 32.65 44.6018 32.839 44.4128C33.028 44.2239 33.1343 43.9677 33.1346 43.7004V40.5034C33.1343 40.2362 33.028 39.98 32.839 39.791C32.65 39.6021 32.3938 39.4958 32.1266 39.4954H9.15343Z" fill="#363636"/>
<path d="M21.2507 43.7246H8.55826V40.5196H21.2507C21.384 40.5196 21.516 40.5459 21.6391 40.5969C21.7622 40.6479 21.8741 40.7226 21.9684 40.8169C22.0626 40.9111 22.1374 41.023 22.1884 41.1461C22.2394 41.2693 22.2656 41.4012 22.2656 41.5345V42.7097C22.2656 42.843 22.2394 42.975 22.1884 43.0981C22.1374 43.2212 22.0626 43.3331 21.9684 43.4274C21.8741 43.5216 21.7622 43.5964 21.6391 43.6474C21.516 43.6984 21.384 43.7246 21.2507 43.7246Z" fill="white"/>
<g opacity="0.3">
<path d="M20.3307 43.0341C20.5998 43.0341 20.858 42.9271 21.0483 42.7368C21.2386 42.5465 21.3456 42.2883 21.3456 42.0192V40.8441C21.3454 40.7346 21.3274 40.6258 21.2923 40.522C21.5539 40.5324 21.8013 40.6436 21.9828 40.8323C22.1643 41.021 22.2657 41.2726 22.266 41.5344V42.7095C22.266 42.9786 22.159 43.2368 21.9687 43.4271C21.7784 43.6174 21.5202 43.7244 21.2511 43.7244H8.55859V43.0341H20.3307Z" fill="#363636"/>
</g>
<path d="M21.2502 44.0053H8.5577C8.48309 44.0053 8.41153 43.9757 8.35877 43.9229C8.30601 43.8702 8.27637 43.7986 8.27637 43.724V40.5195C8.27641 40.4449 8.30607 40.3734 8.35882 40.3206C8.41158 40.2679 8.48312 40.2383 8.5577 40.2383H21.2502C21.5938 40.2386 21.9233 40.3753 22.1663 40.6183C22.4094 40.8614 22.546 41.1908 22.5464 41.5345V42.7096C22.5459 43.0531 22.4091 43.3825 22.1661 43.6254C21.9231 43.8683 21.5937 44.0049 21.2502 44.0053ZM8.83889 43.4428H21.2502C21.4447 43.4426 21.6312 43.3652 21.7687 43.2276C21.9063 43.0901 21.9836 42.9036 21.9839 42.7091V41.5341C21.9837 41.3395 21.9063 41.153 21.7688 41.0155C21.6312 40.8779 21.4447 40.8005 21.2502 40.8003H8.83889V43.4428Z" fill="#363636"/>
<g opacity="0.4">
<path d="M11.6381 41.4681C11.3815 41.5003 11.1248 41.5153 10.8682 41.5264L10.0983 41.5517C9.84163 41.5612 9.58499 41.5653 9.32851 41.5718C9.07202 41.5782 8.81523 41.5811 8.55859 41.5831V41.353C8.81523 41.355 9.07187 41.3579 9.32851 41.3644C9.58515 41.3708 9.84163 41.3748 10.0983 41.3843L10.8682 41.4098C11.1248 41.4207 11.3822 41.4359 11.6381 41.4681Z" fill="#363636"/>
<path d="M22.2419 41.583C20.7927 41.5924 19.3436 41.5847 17.8944 41.5761L15.7206 41.5537C14.996 41.5444 14.2714 41.5537 13.5469 41.468C14.2714 41.3827 14.996 41.3913 15.7206 41.3821L17.8944 41.3597C19.3436 41.3512 20.7927 41.3436 22.2419 41.3529V41.583Z" fill="#363636"/>
<path d="M16.0821 42.1601C15.455 42.2449 14.828 42.242 14.2011 42.2495L12.3203 42.2716L10.4394 42.2811C9.81254 42.2821 9.18559 42.2801 8.55859 42.2753V42.0452C9.18554 42.0392 9.81248 42.0385 10.4394 42.0394L12.3203 42.0487L14.2011 42.0707C14.828 42.0782 15.455 42.0753 16.0821 42.1601Z" fill="#363636"/>
<path d="M22.2421 42.2751C21.849 42.2784 21.4558 42.2784 21.0626 42.2751L19.8832 42.2623L18.7039 42.2392C18.3107 42.2331 17.9176 42.225 17.5244 42.1601C17.9176 42.095 18.3107 42.0869 18.7039 42.0809L19.8832 42.0579L21.0626 42.045C21.4558 42.0423 21.849 42.0423 22.2421 42.045V42.2751Z" fill="#363636"/>
<path d="M12.3203 42.8524C12.0069 42.8985 11.6933 42.9184 11.3799 42.9304L10.4394 42.9541C10.126 42.9635 9.81248 42.9644 9.49893 42.9683C9.34226 42.9707 9.18554 42.9714 9.02876 42.9704C8.87199 42.9704 8.71537 42.9704 8.55859 42.9675V42.7374C8.71537 42.7346 8.87199 42.7348 9.02876 42.7345C9.18554 42.7342 9.34231 42.7345 9.49893 42.7366C9.81248 42.7405 10.126 42.7414 10.4394 42.7507L11.3799 42.7745C11.6933 42.7866 12.0069 42.8063 12.3203 42.8524Z" fill="#363636"/>
<path d="M22.2421 42.9677L20.3045 42.9572L18.3671 42.9385L16.4296 42.9134C15.7838 42.9055 15.1378 42.898 14.4922 42.852C15.1378 42.806 15.7838 42.7991 16.4296 42.7906L18.3671 42.7655L20.3045 42.7469L22.2421 42.7363V42.9677Z" fill="#363636"/>
</g>
<path d="M4.73956 44.8995C5.07704 44.806 5.41452 44.7563 5.75199 44.7184C6.08947 44.6806 6.42695 44.6672 6.76443 44.656C7.43939 44.6313 8.11435 44.6443 8.78931 44.6578C9.46427 44.6713 10.1392 44.669 10.8142 44.6694H33.0946H34.1071C34.4445 44.6694 34.782 44.654 35.1195 44.6465C35.4573 44.6389 35.7953 44.6499 36.1319 44.6795C36.4694 44.7137 36.8069 44.7704 37.1444 44.8998C37.1679 44.9085 37.1881 44.9242 37.2024 44.9447C37.2167 44.9653 37.2244 44.9898 37.2244 45.0148C37.2244 45.0399 37.2167 45.0643 37.2024 45.0849C37.1881 45.1054 37.1679 45.1211 37.1444 45.1299C36.8069 45.2592 36.4694 45.3161 36.1319 45.3501C35.7953 45.3797 35.4573 45.3908 35.1195 45.3831C34.782 45.3759 34.4445 45.3601 34.1071 45.3603H33.0946H10.8156C10.1406 45.3603 9.46565 45.3574 8.79069 45.3718C8.11573 45.3862 7.44077 45.3983 6.76581 45.3736C6.42833 45.3624 6.09086 45.3495 5.75338 45.3112C5.4159 45.2728 5.07842 45.2236 4.74094 45.1302C4.71575 45.1232 4.69354 45.1082 4.67772 45.0874C4.66189 45.0666 4.65332 45.0412 4.65332 45.0151C4.65332 44.989 4.66189 44.9636 4.67772 44.9428C4.69354 44.922 4.71575 44.907 4.74094 44.9001L4.73956 44.8995Z" fill="#363636"/>
</svg>
